<svg width="818" height="454" viewBox="0 0 818 454" fill="none" xmlns="http://www.w3.org/2000/svg"><g opacity=".9" filter="url(#a)"><path d="M296.023 38.32c0-5.7 4.618-10.32 10.314-10.32h471.349C783.382 28 788 32.62 788 38.32v372.575c0 5.7-4.618 10.32-10.314 10.32H306.337c-5.696 0-10.314-4.62-10.314-10.32V38.321z" fill="#fff"/><path d="M363.693 144.44h36.579v102.419h-36.579V144.44zm110.344 0h36.578v102.419h-36.578V144.44zm110.953 0h35.969v102.419H584.99V144.44zm110.346 0h35.968v102.419h-35.968V144.44z" fill="#F2F2F2" fill-opacity=".75"/><path d="M168 38.32c0-5.7 4.61-10.32 10.296-10.32h118.405c5.686 0 10.296 4.62 10.296 10.32v372.575c0 5.7-4.61 10.32-10.296 10.32H178.296c-5.686 0-10.296-4.62-10.296-10.32V38.321z" fill="#3E4C70"/><path d="M168 38.308C168 32.615 172.606 28 178.287 28H296.71c5.681 0 10.287 4.615 10.287 10.308v12.914c0 5.693-4.606 10.308-10.287 10.308H178.287c-5.681 0-10.287-4.615-10.287-10.308V38.308zm0 352.871c0-6.163 0-9.244 1.272-11.563a10.304 10.304 0 0 1 4.059-4.067c2.315-1.276 5.39-1.276 11.54-1.276h105.255c6.15 0 9.225 0 11.54 1.276a10.304 10.304 0 0 1 4.059 4.067c1.272 2.319 1.272 5.4 1.272 11.563v13.131c0 6.162 0 9.244-1.272 11.563a10.304 10.304 0 0 1-4.059 4.067c-2.315 1.275-5.39 1.275-11.54 1.275H184.871c-6.15 0-9.225 0-11.54-1.275a10.304 10.304 0 0 1-4.059-4.067C168 413.554 168 410.472 168 404.31v-13.131zm4.877-321.602c0-1.414 1.157-2.56 2.585-2.56h124.073c1.428 0 2.585 1.146 2.585 2.56v33.286c0 1.414-1.157 2.561-2.585 2.561H175.462c-1.428 0-2.585-1.147-2.585-2.561V69.577zm0 258.486c0-1.414 1.157-2.56 2.585-2.56h124.073c1.428 0 2.585 1.146 2.585 2.56v33.286c0 1.414-1.157 2.561-2.585 2.561H175.462c-1.428 0-2.585-1.147-2.585-2.561v-33.286z" fill="#2B3750"/><path fill-rule="evenodd" clip-rule="evenodd" d="M306.997 110.91H168v-.609h138.997v.609z" fill="#fff" fill-opacity=".1"/><path fill-rule="evenodd" clip-rule="evenodd" d="M786.78 61.53H306.996v-.61H786.78v.61zm0 57.915H306.996v-.609H786.78v.609zm-31.091 127.414H338.088v-.609h417.601v.609zm0-51.209H338.088v-.61h417.601v.61zm0-24.995H338.088v-.61h417.601v.61zm0 51.209H338.088v-.609h417.601v.609zm0-76.814H338.088v-.61h417.601v.61z" fill="#D2D4DE"/><path fill-rule="evenodd" clip-rule="evenodd" d="M306.997 136.515H168v-.609h138.997v.609zm0 25.605H168v-.61h138.997v.61zm0 26.214H168v-.609h138.997v.609zm0 25.605H168v-.61h138.997v.61zm0 25.604H168v-.609h138.997v.609zm0 26.215H168v-.61h138.997v.61z" fill="#fff" fill-opacity=".1"/><path fill-rule="evenodd" clip-rule="evenodd" d="M302.12 344.401H172.877v-.609H302.12v.609z" fill="#3E4C70"/><path d="M225.305 123.408c0-1.515 1.156-2.743 2.583-2.743h49.091c1.427 0 2.583 1.228 2.583 2.743s-1.156 2.743-2.583 2.743h-49.091c-1.427 0-2.583-1.228-2.583-2.743zm-26.825 25.909c0-1.346 1.158-2.438 2.586-2.438h69.814c1.428 0 2.586 1.092 2.586 2.438 0 1.347-1.158 2.439-2.586 2.439h-69.814c-1.428 0-2.586-1.092-2.586-2.439zm0 25.605c0-1.347 1.158-2.439 2.585-2.439h59.452c1.428 0 2.585 1.092 2.585 2.439s-1.157 2.438-2.585 2.438h-59.452c-1.427 0-2.585-1.091-2.585-2.438zm0 25.91c0-1.515 1.163-2.743 2.597-2.743h64.915c1.434 0 2.597 1.228 2.597 2.743s-1.163 2.743-2.597 2.743h-64.915c-1.434 0-2.597-1.228-2.597-2.743zm0 25.909c0-1.346 1.163-2.438 2.598-2.438h54.549c1.435 0 2.598 1.092 2.598 2.438 0 1.347-1.163 2.439-2.598 2.439h-54.549c-1.435 0-2.598-1.092-2.598-2.439z" fill="#fff" fill-opacity=".1"/><path d="M182.631 334.647c0-1.347 1.163-2.439 2.597-2.439h54.55c1.434 0 2.597 1.092 2.597 2.439s-1.163 2.439-2.597 2.439h-54.55c-1.434 0-2.597-1.092-2.597-2.439zm0 19.508c0-1.346 1.162-2.438 2.596-2.438h75.28c1.434 0 2.596 1.092 2.596 2.438 0 1.347-1.162 2.439-2.596 2.439h-75.28c-1.434 0-2.596-1.092-2.596-2.439z" fill="#fff" fill-opacity=".2"/><path d="M198.48 252.346c0-1.347 1.176-2.439 2.627-2.439h28.887c1.45 0 2.626 1.092 2.626 2.439s-1.176 2.439-2.626 2.439h-28.887c-1.451 0-2.627-1.092-2.627-2.439zm0-128.938c0-1.515 1.165-2.743 2.603-2.743h16.133c1.437 0 2.602 1.228 2.602 2.743s-1.165 2.743-2.602 2.743h-16.133c-1.438 0-2.603-1.228-2.603-2.743z" fill="#fff" fill-opacity=".1"/><path d="M320.41 44.46a4.268 4.268 0 1 1 8.536 0 4.268 4.268 0 0 1-8.536 0z" fill="#333" fill-opacity=".1"/><path d="M178.363 252.346c0-2.02 1.501-3.658 3.353-3.658 1.852 0 3.353 1.638 3.353 3.658s-1.501 3.658-3.353 3.658c-1.852 0-3.353-1.638-3.353-3.658zm0-25.605c0-2.02 1.501-3.658 3.353-3.658 1.852 0 3.353 1.638 3.353 3.658s-1.501 3.658-3.353 3.658c-1.852 0-3.353-1.638-3.353-3.658zm0-25.909a3.353 3.353 0 1 1 6.706 0 3.353 3.353 0 0 1-6.706 0zm0-25.91c0-2.02 1.501-3.658 3.353-3.658 1.852 0 3.353 1.638 3.353 3.658s-1.501 3.658-3.353 3.658c-1.852 0-3.353-1.638-3.353-3.658zm0-25.605c0-2.02 1.501-3.657 3.353-3.657 1.852 0 3.353 1.637 3.353 3.657 0 2.021-1.501 3.658-3.353 3.658-1.852 0-3.353-1.637-3.353-3.658zm0-25.604c0-2.02 1.501-3.658 3.353-3.658 1.852 0 3.353 1.638 3.353 3.658s-1.501 3.658-3.353 3.658c-1.852 0-3.353-1.638-3.353-3.658z" fill="#fff" fill-opacity=".3"/><path d="M292.803 344.401c0 3.347-2.589 5.925-5.62 5.925s-5.621-2.578-5.621-5.925 2.59-5.925 5.621-5.925c3.031 0 5.62 2.578 5.62 5.925z" fill="#2B3750" stroke="#36476C" stroke-width="4"/><path d="M287.183 350.103c3.144 0 5.56-2.627 5.56-5.702 0-3.074-2.416-5.702-5.56-5.702-3.144 0-5.56 2.628-5.56 5.702 0 3.075 2.416 5.702 5.56 5.702zm5.62-5.702c0 3.347-2.589 5.925-5.62 5.925s-5.621-2.578-5.621-5.925 2.59-5.925 5.621-5.925c3.031 0 5.62 2.578 5.62 5.925z" fill="#36476C" stroke="#36476C" stroke-width="4"/><mask id="b" fill="#fff"><path fill-rule="evenodd" clip-rule="evenodd" d="M287.183 350.213c3.086 0 5.588-2.602 5.588-5.812 0-3.21-2.502-5.812-5.588-5.812-3.086 0-5.588 2.602-5.588 5.812 0 3.21 2.502 5.812 5.588 5.812zm0 2.113c4.209 0 7.62-3.548 7.62-7.925s-3.411-7.925-7.62-7.925-7.621 3.548-7.621 7.925 3.412 7.925 7.621 7.925z"/></mask><path fill-rule="evenodd" clip-rule="evenodd" d="M287.183 350.213c3.086 0 5.588-2.602 5.588-5.812 0-3.21-2.502-5.812-5.588-5.812-3.086 0-5.588 2.602-5.588 5.812 0 3.21 2.502 5.812 5.588 5.812zm0 2.113c4.209 0 7.62-3.548 7.62-7.925s-3.411-7.925-7.62-7.925-7.621 3.548-7.621 7.925 3.412 7.925 7.621 7.925z" fill="#36476C"/><path d="M288.771 344.401c0 1.15-.857 1.812-1.588 1.812v8c5.442 0 9.588-4.542 9.588-9.812h-8zm-1.588-1.812c.731 0 1.588.662 1.588 1.812h8c0-5.27-4.146-9.812-9.588-9.812v8zm-1.588 1.812c0-1.15.857-1.812 1.588-1.812v-8c-5.442 0-9.588 4.542-9.588 9.812h8zm1.588 1.812c-.731 0-1.588-.662-1.588-1.812h-8c0 5.27 4.146 9.812 9.588 9.812v-8zm3.62-1.812c0 2.317-1.767 3.925-3.62 3.925v8c6.564 0 11.62-5.488 11.62-11.925h-8zm-3.62-3.925c1.853 0 3.62 1.608 3.62 3.925h8c0-6.437-5.056-11.925-11.62-11.925v8zm-3.621 3.925c0-2.317 1.768-3.925 3.621-3.925v-8c-6.564 0-11.621 5.488-11.621 11.925h8zm3.621 3.925c-1.853 0-3.621-1.608-3.621-3.925h-8c0 6.437 5.057 11.925 11.621 11.925v-8z" fill="#36476C" mask="url(#b)"/><mask id="c" fill="#fff"><path fill-rule="evenodd" clip-rule="evenodd" d="M292.771 344.401c0 3.21-2.502 5.812-5.588 5.812-3.086 0-5.588-2.602-5.588-5.812 0-3.21 2.502-5.812 5.588-5.812 3.086 0 5.588 2.602 5.588 5.812zm2.032 0c0 4.377-3.411 7.925-7.62 7.925s-7.621-3.548-7.621-7.925 3.412-7.925 7.621-7.925c4.209 0 7.62 3.548 7.62 7.925z"/></mask><path fill-rule="evenodd" clip-rule="evenodd" d="M292.771 344.401c0 3.21-2.502 5.812-5.588 5.812-3.086 0-5.588-2.602-5.588-5.812 0-3.21 2.502-5.812 5.588-5.812 3.086 0 5.588 2.602 5.588 5.812zm2.032 0c0 4.377-3.411 7.925-7.62 7.925s-7.621-3.548-7.621-7.925 3.412-7.925 7.621-7.925c4.209 0 7.62 3.548 7.62 7.925z" fill="#36476C"/><path d="M287.183 354.213c5.442 0 9.588-4.542 9.588-9.812h-8c0 1.15-.857 1.812-1.588 1.812v8zm-9.588-9.812c0 5.27 4.146 9.812 9.588 9.812v-8c-.731 0-1.588-.662-1.588-1.812h-8zm9.588-9.812c-5.442 0-9.588 4.542-9.588 9.812h8c0-1.15.857-1.812 1.588-1.812v-8zm9.588 9.812c0-5.27-4.146-9.812-9.588-9.812v8c.731 0 1.588.662 1.588 1.812h8zm-9.588 11.925c6.564 0 11.62-5.488 11.62-11.925h-8c0 2.317-1.767 3.925-3.62 3.925v8zm-11.621-11.925c0 6.437 5.057 11.925 11.621 11.925v-8c-1.853 0-3.621-1.608-3.621-3.925h-8zm11.621-11.925c-6.564 0-11.621 5.488-11.621 11.925h8c0-2.317 1.768-3.925 3.621-3.925v-8zm11.62 11.925c0-6.437-5.056-11.925-11.62-11.925v8c1.853 0 3.62 1.608 3.62 3.925h8z" fill="#36476C" mask="url(#c)"/><path fill-rule="evenodd" clip-rule="evenodd" d="M499.033 119.446V62.14h.61v57.306h-.61zm-95.713 0V62.14h.61v57.306h-.61zm192.035 0V62.14h.61v57.306h-.61z" fill="#D2D4DE"/><path d="M338.088 43.85c0-1.347 1.158-2.438 2.586-2.438h69.813c1.428 0 2.586 1.091 2.586 2.438 0 1.347-1.158 2.439-2.586 2.439h-69.813c-1.428 0-2.586-1.092-2.586-2.439zm307.867.61c0-1.01 1.162-1.829 2.594-1.829h43.583c1.433 0 2.594.82 2.594 1.83 0 1.01-1.161 1.828-2.594 1.828h-43.583c-1.432 0-2.594-.819-2.594-1.829zm56.695 0c0-1.01 1.162-1.829 2.595-1.829h43.582c1.433 0 2.594.82 2.594 1.83 0 1.01-1.161 1.828-2.594 1.828h-43.582c-1.433 0-2.595-.819-2.595-1.829zm26.825 32.92c0-.673.563-1.219 1.257-1.219h17.603c.695 0 1.258.546 1.258 1.22 0 .673-.563 1.219-1.258 1.219h-17.603c-.694 0-1.257-.546-1.257-1.22zm-199.352-.61c0-.673.575-1.219 1.285-1.219h33.399c.709 0 1.285.546 1.285 1.22 0 .673-.576 1.219-1.285 1.219h-33.399c-.71 0-1.285-.546-1.285-1.22zm-193.252-1.218c0-.674.585-1.22 1.306-1.22h33.966c.721 0 1.306.546 1.306 1.22 0 .673-.585 1.219-1.306 1.219h-33.966c-.721 0-1.306-.546-1.306-1.22zm103.637 1.828c0-.673.563-1.219 1.257-1.219h17.603c.695 0 1.258.546 1.258 1.22 0 .673-.563 1.219-1.258 1.219h-17.603c-.694 0-1.257-.546-1.257-1.22zm179.234 0c0-.673 1.331-1.219 2.972-1.219h41.608c1.641 0 2.972.546 2.972 1.22 0 .673-1.331 1.219-2.972 1.219h-41.608c-1.641 0-2.972-.546-2.972-1.22z" fill="#333" fill-opacity=".1"/><mask id="d" fill="#fff"><path fill-rule="evenodd" clip-rule="evenodd" d="M780.354 34.557H640.801c-.571 0-1.034.412-1.034.921v17.964c0 .509.463.922 1.034.922h139.553c.571 0 1.034-.413 1.034-.922V35.478c0-.509-.463-.921-1.034-.921zm-139.553-.46c-.857 0-1.551.618-1.551 1.381v17.964c0 .763.694 1.382 1.551 1.382h139.553c.857 0 1.551-.619 1.551-1.382V35.478c0-.763-.694-1.382-1.551-1.382H640.801z"/></mask><path fill-rule="evenodd" clip-rule="evenodd" d="M780.354 34.557H640.801c-.571 0-1.034.412-1.034.921v17.964c0 .509.463.922 1.034.922h139.553c.571 0 1.034-.413 1.034-.922V35.478c0-.509-.463-.921-1.034-.921zm-139.553-.46c-.857 0-1.551.618-1.551 1.381v17.964c0 .763.694 1.382 1.551 1.382h139.553c.857 0 1.551-.619 1.551-1.382V35.478c0-.763-.694-1.382-1.551-1.382H640.801z" fill="#D2D4DE"/><path d="M640.801 36.557h139.553v-4H640.801v4zm.966-1.079c0 .378-.176.672-.367.842a.902.902 0 0 1-.599.237v-4c-1.453 0-3.034 1.097-3.034 2.921h4zm0 17.964V35.478h-4v17.964h4zm-.966-1.078c.195 0 .413.07.599.236.191.17.367.464.367.842h-4c0 1.824 1.581 2.922 3.034 2.922v-4zm139.553 0H640.801v4h139.553v-4zm-.966 1.078c0-.378.176-.672.367-.842a.902.902 0 0 1 .599-.236v4c1.453 0 3.034-1.098 3.034-2.922h-4zm0-17.964v17.964h4V35.478h-4zm.966 1.079a.902.902 0 0 1-.599-.237 1.128 1.128 0 0 1-.367-.842h4c0-1.824-1.581-2.921-3.034-2.921v4zM641.25 35.478c0 .25-.118.43-.215.516a.36.36 0 0 1-.234.102v-4c-1.738 0-3.551 1.304-3.551 3.382h4zm0 17.964V35.478h-4v17.964h4zm-.449-.618a.36.36 0 0 1 .234.102.696.696 0 0 1 .215.516h-4c0 2.078 1.813 3.382 3.551 3.382v-4zm139.553 0H640.801v4h139.553v-4zm-.449.618c0-.25.118-.43.215-.516a.36.36 0 0 1 .234-.102v4c1.738 0 3.551-1.304 3.551-3.382h-4zm0-17.964v17.964h4V35.478h-4zm.449.618a.36.36 0 0 1-.234-.102.696.696 0 0 1-.215-.516h4c0-2.078-1.813-3.382-3.551-3.382v4zm-139.553 0h139.553v-4H640.801v4z" fill="#D2D4DE" mask="url(#d)"/><mask id="e" fill="#fff"><path fill-rule="evenodd" clip-rule="evenodd" d="M640.801 34.557h139.553c.571 0 1.034.412 1.034.921v17.964c0 .509-.463.922-1.034.922H640.801c-.571 0-1.034-.413-1.034-.922V35.478c0-.509.463-.921 1.034-.921zm-1.551.921c0-.763.694-1.382 1.551-1.382h139.553c.857 0 1.551.62 1.551 1.382v17.964c0 .763-.694 1.382-1.551 1.382H640.801c-.857 0-1.551-.619-1.551-1.382V35.478z"/></mask><path fill-rule="evenodd" clip-rule="evenodd" d="M640.801 34.557h139.553c.571 0 1.034.412 1.034.921v17.964c0 .509-.463.922-1.034.922H640.801c-.571 0-1.034-.413-1.034-.922V35.478c0-.509.463-.921 1.034-.921zm-1.551.921c0-.763.694-1.382 1.551-1.382h139.553c.857 0 1.551.62 1.551 1.382v17.964c0 .763-.694 1.382-1.551 1.382H640.801c-.857 0-1.551-.619-1.551-1.382V35.478z" fill="#D2D4DE"/><path d="M780.354 32.557H640.801v4h139.553v-4zm3.034 2.921c0-1.824-1.581-2.921-3.034-2.921v4a.902.902 0 0 1-.599-.237 1.128 1.128 0 0 1-.367-.842h4zm0 17.964V35.478h-4v17.964h4zm-3.034 2.922c1.453 0 3.034-1.098 3.034-2.922h-4c0-.378.176-.672.367-.842a.902.902 0 0 1 .599-.236v4zm-139.553 0h139.553v-4H640.801v4zm-3.034-2.922c0 1.824 1.581 2.922 3.034 2.922v-4c.195 0 .413.07.599.236.191.17.367.464.367.842h-4zm0-17.964v17.964h4V35.478h-4zm3.034-2.921c-1.453 0-3.034 1.097-3.034 2.921h4c0 .378-.176.672-.367.842a.902.902 0 0 1-.599.237v-4zm0-.46c-1.738 0-3.551 1.303-3.551 3.381h4c0 .25-.118.43-.215.516a.36.36 0 0 1-.234.102v-4zm139.553 0H640.801v4h139.553v-4zm3.551 3.381c0-2.078-1.813-3.382-3.551-3.382v4a.36.36 0 0 1-.234-.102.696.696 0 0 1-.215-.516h4zm0 17.964V35.478h-4v17.964h4zm-3.551 3.382c1.738 0 3.551-1.304 3.551-3.382h-4c0-.25.118-.43.215-.516a.36.36 0 0 1 .234-.102v4zm-139.553 0h139.553v-4H640.801v4zm-3.551-3.382c0 2.078 1.813 3.382 3.551 3.382v-4a.36.36 0 0 1 .234.102.696.696 0 0 1 .215.516h-4zm0-17.964v17.964h4V35.478h-4z" fill="#D2D4DE" mask="url(#e)"/><path fill-rule="evenodd" clip-rule="evenodd" d="M776.415 42.022h-10.364v-1.22h10.364v1.22zm-3.658 3.048h-6.706v-1.22h6.706v1.22zm-2.439 3.048h-4.267v-1.22h4.267v1.22zm-10.361 6.706V34.096h.61v20.728h-.61z" fill="#D2D4DE"/><path fill-rule="evenodd" clip-rule="evenodd" d="M395.607 162.73l-2.948 5.9.462.228 2.597-5.197 2.352 2.794.395-.33-2.858-3.395zm27.245.167l-4.645 6.336.417.303 4.429-6.042 4.782 1.441.149-.491-5.132-1.547zm8.949 3.233l9.914 2.988.149-.491-9.914-2.988-.149.491zm253.569.271l-2.381 6.048.48.188 2.156-5.476 4.946 3.039.271-.436-5.472-3.363zm-285.217 2.529l5.21 6.189.395-.329-5.209-6.189-.396.329zm50.392 2.849l-4.864-1.466.149-.491 5.051 1.522 2.572 4.137-.439.27-2.469-3.972zm70.322-.496l-5.827 1.524.131.496 5.599-1.464 4.608 3.135.291-.423-4.802-3.268zm124.327.022h-5.202v.513h4.881l2.366 4.766.462-.228-2.507-5.051zm-14.221.513h4.986v-.513h-5.096l-3.411 1.516.211.469 3.31-1.472zm-292.885-.066l3.109 2.775.345-.382-3.109-2.775-.345.382zm356.651 1.009l5.252 3.228 5.175.862.085-.506-5.075-.846-5.166-3.174-.271.436zm-309.381 11.634l5.545-11.097-.462-.229-5.545 11.098.462.228zm119.577-8.415l5.665-1.481-.131-.497-5.762 1.507-4.073 3.017.308.412 3.993-2.958zm116.678-.001l3.361-1.494-.21-.469-3.357 1.492-.004.002-7.054 2.986.202.472 7.058-2.988.004-.001zm-206.619-1.492l-.417-.303-4.342 5.924-2.393-2.843-.396.33 2.817 3.346 4.731-6.454zm328.025.946l-5.244 1.776.167.486 4.838-1.639 2.248 3.976.449-.252-2.458-4.347zm-195.292.008l-5.048 1.769.171.484 4.699-1.646 2.49 3.163.406-.317-2.718-3.453zm-204.043 1.305l6.218 5.549.344-.382-6.218-5.549-.344.382zm365.582.788l10.25 1.707.086-.506-10.251-1.707-.085.506zm-32.149 11.237l4.537-11.525-.48-.187-4.537 11.525.48.187zm-147.975-11.236l4.813 3.275 4.997-1.75-.171-.485-4.75 1.665-4.598-3.128-.291.423zm204.767 1.525l-.166-.485-4.98 1.686-5.061-.843-.085.506 5.189.865 5.103-1.729zm-278.879-.065l5.042 8.11.438-.27-5.041-8.11-.439.27zm126.423 1.258l-3.533 2.517.3.418 3.356-2.392 7.119 1.262.09-.505-7.332-1.3zm67.735.257l4.873 9.818.463-.228-4.873-9.817-.463.227zm-40.283.849l-.202-.473-6.987 2.958-7.15-1.267-.09.505 7.301 1.294 7.128-3.017zm-115.191 2.934l4.002-2.965-.308-.411-4.064 3.01-2.543 3.446.415.304 2.498-3.384zm58.409-2.436l5.209 6.616.406-.317-5.209-6.616-.406.317zm194.787 1.504l4.705 8.323.449-.251-4.705-8.324-.449.252zm-394.521 1.154l3.152 2.813 4.425 1.297.145-.493-4.313-1.264-3.065-2.735-.344.382zm216.185 5.545l6.89-4.909-.3-.417-6.89 4.909.3.417zm-185.434-1.226l-.462-.228-2.677 5.356-4.161-1.22-.146.493 4.577 1.341 2.869-5.742zm-19.679.815l8.738 2.561.146-.492-8.738-2.561-.146.492zm98.627.7l2.553 4.107 5.261 3.233.271-.437-5.158-3.17-2.488-4.003-.439.27zm22.071 6.889l5.041-6.829-.416-.304-5.041 6.829.416.304zm75.257-6.119l2.757 3.502 3.646-2.598-.301-.417-3.244 2.311-2.452-3.114-.406.316zm115.886 2.262l-.48-.187-2.204 5.599h-4.866v.513h5.218l2.332-5.925zm-19.291.874l2.507 5.051h5.202v-.513h-4.881l-2.366-4.766-.462.228zm97.486.759l2.352 4.161.45-.251-2.353-4.162-.449.252zm-271.355 4.956l-.416-.304-2.379 3.224-5.007-3.077-.271.437 5.412 3.325 2.661-3.605z" fill="#45567C" fill-opacity=".5"/><path fill-rule="evenodd" clip-rule="evenodd" d="M698.571 155.414l15.758 31.707 23.666-6.974 17.271-15.498 1.033 1.152-17.532 15.732-25.245 7.439-15.283-30.751-14.455 17.268-12.958-17.772-26.942 8.164-14.052 22.728-15.342 9.479-14.463-19.7-11.074-8.249-15.504-4.076-13.2 9.031-13.485-4.751-14.694 18.764-19.62-14.054-20.129 3.586-19.977-8.503-9.256-4.137h-13.463l-13.639 27.626h-15.117l-12.553-32.059-13.92 8.601-29.03 4.862-13.686-4.66-12.853 22.861-1.348-.758 13.483-23.983 14.533 4.949 28.346-4.747 15.239-9.416 12.844 32.802h13.101l13.639-27.626h14.754l9.544 4.266.013.006 19.528 8.312 20.317-3.62 18.946 13.571 14.465-18.471 13.792 4.858 13.136-8.986 16.477 4.332 11.501 8.566 13.755 18.736 13.817-8.537 14.167-22.915 28.553-8.651 12.439 17.06 14.703-17.564z" fill="#0096FF"/><path d="M325.203 96.889v-1.552c-1.795-.122-2.784-1.043-2.965-2.761h1.038c.074.57.243 1.018.506 1.344.264.326.737.521 1.421.586V91.11c-.873-.162-1.528-.42-1.964-.77-.428-.358-.642-.883-.642-1.576 0-.635.242-1.172.728-1.612.486-.448 1.112-.697 1.878-.746v-1.1h.729v1.112c.749.066 1.342.302 1.778.71.445.407.709.965.791 1.673h-.963c-.091-.472-.268-.83-.532-1.075-.255-.253-.613-.411-1.074-.477v3.055c.955.171 1.651.436 2.087.794.445.359.667.917.667 1.674 0 .7-.259 1.291-.778 1.772-.519.48-1.178.745-1.976.794v1.552h-.729zm2.458-4.045c0-.464-.123-.814-.371-1.05-.247-.237-.7-.424-1.358-.562v3.274c.502-.049.914-.224 1.235-.525a1.5 1.5 0 0 0 .494-1.137zm-4.089-4.178c0 .415.107.741.322.977.222.228.658.407 1.309.538v-2.945c-.511.04-.91.192-1.198.452a1.26 1.26 0 0 0-.433.978zm6.09 6.574v-.245l3.508-3.653c.848-.888 1.272-1.731 1.272-2.53 0-.488-.14-.871-.42-1.148-.272-.277-.659-.416-1.161-.416-1.079 0-1.701.648-1.865 1.943h-1.001c.066-.863.35-1.544.852-2.04.511-.505 1.182-.758 2.014-.758.815 0 1.462.224 1.939.672.486.44.729 1.035.729 1.784 0 .97-.593 2.028-1.779 3.177l-2.433 2.346h4.261v.867h-5.916zm7.596 1.502l-.667-.342 1.186-2.676 1 .465-1.519 2.553zm5.664-1.392c-.914 0-1.618-.225-2.112-.673-.486-.448-.762-1.047-.828-1.796h1.026c.099.53.284.933.556 1.21.271.269.72.403 1.346.403.601 0 1.075-.187 1.421-.562.345-.375.518-.892.518-1.552 0-.619-.168-1.112-.506-1.478-.338-.375-.787-.562-1.347-.562-.889 0-1.585.28-2.087.843h-.395v-4.68h4.965v.916h-4.076v2.664c.436-.4 1.038-.599 1.803-.599.807 0 1.466.265 1.977.795.51.52.766 1.221.766 2.101 0 .896-.289 1.617-.865 2.163-.576.537-1.297.806-2.162.806zm7.574 0c-.584 0-1.087-.103-1.507-.306a2.37 2.37 0 0 1-.988-.868 3.995 3.995 0 0 1-.519-1.246 6.924 6.924 0 0 1-.16-1.552v-.207c0-1.532.313-2.709.938-3.532.635-.83 1.475-1.246 2.52-1.246.7 0 1.277.18 1.73.538.453.358.737.883.852 1.576h-1.025c-.099-.424-.276-.737-.531-.94-.256-.205-.622-.306-1.1-.306-.683 0-1.235.301-1.655.904-.42.603-.642 1.466-.667 2.59a2.31 2.31 0 0 1 .914-.855c.404-.22.857-.33 1.359-.33.865 0 1.56.273 2.087.819.536.545.803 1.226.803 2.04 0 .88-.275 1.588-.827 2.126-.552.53-1.293.794-2.224.794zm0-.832c.585 0 1.054-.187 1.408-.562.363-.374.544-.867.544-1.478 0-.627-.177-1.128-.531-1.503-.354-.383-.832-.574-1.433-.574-.593 0-1.079.179-1.458.537-.378.359-.568.823-.568 1.393 0 .693.185 1.23.556 1.613.379.383.873.574 1.482.574zm7.315.832c-.914 0-1.651-.253-2.211-.758-.552-.505-.844-1.149-.877-1.93h.988c.049.553.247.997.593 1.331.354.334.864.5 1.531.5.676 0 1.178-.146 1.507-.439.338-.301.507-.717.507-1.246 0-1.133-.622-1.699-1.865-1.699h-.667v-.891h.617c1.104 0 1.656-.497 1.656-1.491 0-.432-.14-.782-.42-1.051-.272-.277-.668-.415-1.186-.415-.544 0-.993.15-1.347.452-.346.301-.547.7-.605 1.197h-.939a2.464 2.464 0 0 1 .853-1.784c.535-.489 1.214-.733 2.038-.733.807 0 1.449.228 1.927.684.486.448.728.99.728 1.625 0 .888-.465 1.524-1.395 1.907.535.138.951.395 1.247.77.305.366.457.842.457 1.429 0 .782-.292 1.4-.877 1.857-.576.456-1.33.684-2.26.684zm7.376-.11v-.245l3.508-3.653c.849-.888 1.273-1.731 1.273-2.53 0-.488-.14-.871-.42-1.148-.272-.277-.659-.416-1.161-.416-1.079 0-1.701.648-1.866 1.943h-1c.066-.863.35-1.544.852-2.04.511-.505 1.182-.758 2.014-.758.815 0 1.461.224 1.939.672.486.44.729 1.035.729 1.784 0 .97-.593 2.028-1.779 3.177l-2.434 2.346h4.262v.867h-5.917zm10.794-.77c.766 0 1.347-.286 1.742-.856.395-.578.593-1.421.593-2.529v-.489c0-1.026-.21-1.84-.63-2.443-.412-.603-.988-.905-1.729-.905-.75 0-1.335.298-1.755.892-.419.587-.629 1.414-.629 2.48v.49c0 1.083.214 1.914.642 2.492.428.578 1.017.867 1.766.867zm0 .88c-1.054 0-1.902-.388-2.544-1.161-.643-.774-.964-1.797-.964-3.067v-.49c0-1.294.309-2.325.927-3.09.625-.766 1.478-1.149 2.557-1.149 1.07 0 1.91.387 2.519 1.16.618.775.927 1.793.927 3.056v.488c0 1.287-.305 2.318-.914 3.092-.601.773-1.437 1.16-2.508 1.16zm7.741 0c-.914 0-1.651-.253-2.211-.758-.552-.505-.844-1.149-.877-1.93h.988c.05.553.247.997.593 1.331.354.334.865.5 1.532.5.675 0 1.177-.146 1.507-.439.338-.301.506-.717.506-1.246 0-1.133-.621-1.699-1.865-1.699h-.667v-.891h.618c1.103 0 1.655-.497 1.655-1.491 0-.432-.14-.782-.42-1.051-.272-.277-.667-.415-1.186-.415-.543 0-.992.15-1.346.452-.346.301-.548.7-.606 1.197h-.938a2.466 2.466 0 0 1 .852-1.784c.535-.489 1.215-.733 2.038-.733.807 0 1.449.228 1.927.684.486.448.729.99.729 1.625 0 .888-.465 1.524-1.396 1.907.535.138.951.395 1.248.77.304.366.457.842.457 1.429 0 .782-.293 1.4-.877 1.857-.577.456-1.33.684-2.261.684zm50.231-.055v-8.149l-1.98 1.49v-1.05l2.054-1.554h1.003v9.263h-1.077zm4.361 0l3.082-8.356h-4.493v-.907h5.83v.155l-3.317 9.108h-1.102zm4.931 0v-.259l3.515-3.874c.849-.941 1.274-1.835 1.274-2.681 0-.519-.14-.925-.42-1.218-.273-.294-.661-.44-1.164-.44-1.081 0-1.704.686-1.869 2.06h-1.002c.066-.916.351-1.638.854-2.164.511-.536 1.184-.804 2.017-.804.817 0 1.465.238 1.943.713.487.466.73 1.097.73 1.891 0 1.028-.594 2.151-1.782 3.369l-2.438 2.487h4.27v.92h-5.928zm7.61 1.594l-.668-.363 1.188-2.837 1.003.492-1.523 2.708zm3.958-1.594v-8.149l-1.98 1.49v-1.05l2.054-1.554h1.003v9.263h-1.077zm4.362 0l3.081-8.356h-4.492v-.907h5.829v.155l-3.317 9.108h-1.101zm8.173.117c-.916 0-1.622-.238-2.117-.713-.486-.475-.763-1.11-.829-1.904h1.027c.099.561.285.989.557 1.282.273.285.722.428 1.349.428.603 0 1.077-.199 1.423-.596.347-.397.52-.946.52-1.645 0-.657-.169-1.18-.507-1.568-.338-.397-.788-.596-1.349-.596-.891 0-1.588.298-2.092.894h-.396v-4.962h4.975v.972h-4.084v2.824c.438-.423 1.04-.635 1.807-.635.809 0 1.469.28 1.98.842.512.553.768 1.296.768 2.229 0 .95-.289 1.714-.867 2.293-.577.57-1.299.855-2.165.855zm65.135 1.477v-1.552c-1.797-.122-2.786-1.043-2.967-2.761h1.038c.074.57.243 1.018.507 1.344.264.326.738.521 1.422.586V91.11c-.874-.162-1.529-.42-1.966-.77-.428-.358-.643-.883-.643-1.576 0-.635.243-1.172.73-1.612.486-.448 1.112-.697 1.879-.746v-1.1h.73v1.112c.75.066 1.343.302 1.78.71.445.407.709.965.791 1.673h-.964c-.091-.472-.268-.83-.532-1.075-.255-.253-.614-.411-1.075-.477v3.055c.956.171 1.652.436 2.089.794.445.359.668.917.668 1.674 0 .7-.26 1.291-.779 1.772-.519.48-1.179.745-1.978.794v1.552h-.73zm2.461-4.045c0-.464-.124-.814-.371-1.05-.248-.237-.701-.424-1.36-.562v3.274c.502-.049.915-.224 1.236-.525.33-.31.495-.688.495-1.137zm-4.093-4.178c0 .415.107.741.321.977.223.228.66.407 1.311.538v-2.945c-.511.04-.911.192-1.199.452a1.26 1.26 0 0 0-.433.978zm8.246 6.574v-7.686l-1.978 1.405v-.99l2.053-1.466h1.001v8.736h-1.076zm6.311.11c-.502 0-.98-.09-1.434-.27a2.774 2.774 0 0 1-1.15-.891 2.28 2.28 0 0 1-.47-1.43c0-.562.153-1.035.458-1.417a2.643 2.643 0 0 1 1.212-.843 2.19 2.19 0 0 1-.989-.721 1.84 1.84 0 0 1-.347-1.112c0-.676.272-1.222.816-1.638a3.045 3.045 0 0 1 1.904-.635c.718 0 1.348.212 1.892.635.544.416.816.953.816 1.613 0 .84-.453 1.454-1.36 1.845 1.129.408 1.694 1.157 1.694 2.248 0 .823-.305 1.467-.915 1.931-.602.456-1.31.684-2.127.684zm0-.868c.569 0 1.035-.155 1.398-.465.362-.317.544-.757.544-1.32 0-.553-.182-.98-.544-1.282-.363-.302-.821-.452-1.373-.452-.56 0-1.03.155-1.409.464-.38.31-.569.741-.569 1.295 0 .546.189.978.569 1.295.379.31.84.465 1.384.465zm.038-4.362c.478 0 .861-.13 1.149-.391.289-.26.433-.62.433-1.076a1.29 1.29 0 0 0-.47-1.026c-.305-.269-.688-.403-1.15-.403-.469 0-.861.134-1.174.403-.305.26-.458.611-.458 1.051 0 .44.161.79.483 1.05.321.261.717.392 1.187.392zm5.7 4.96a.787.787 0 0 1-.556.22.788.788 0 0 1-.557-.22.763.763 0 0 1-.235-.562c0-.22.079-.403.235-.55a.766.766 0 0 1 .557-.232c.214 0 .399.078.556.233a.72.72 0 0 1 .235.55.76.76 0 0 1-.235.561zm1.425.16v-.245l3.511-3.653c.849-.888 1.274-1.731 1.274-2.53 0-.488-.14-.871-.421-1.148-.272-.277-.659-.416-1.162-.416-1.08 0-1.702.648-1.867 1.943h-1.001c.065-.863.35-1.544.853-2.04.511-.505 1.183-.758 2.015-.758.816 0 1.463.224 1.941.672.487.44.73 1.035.73 1.784 0 .97-.594 2.028-1.781 3.177l-2.435 2.346h4.265v.867h-5.922zm10.197.097c-.808 0-1.455-.196-1.941-.587-.487-.399-.788-.953-.903-1.661h1.039c.107.456.3.802.581 1.038.288.229.704.343 1.248.343.718 0 1.27-.29 1.657-.868.396-.587.598-1.454.606-2.603a2.285 2.285 0 0 1-.927.856 2.978 2.978 0 0 1-1.36.305c-.858 0-1.558-.269-2.102-.806-.536-.538-.804-1.222-.804-2.053 0-.88.276-1.584.829-2.114.552-.537 1.294-.806 2.225-.806 1.039 0 1.826.338 2.362 1.014.544.668.816 1.633.816 2.896v.55c0 1.441-.289 2.553-.866 3.335-.577.774-1.397 1.161-2.46 1.161zm.161-4.008c.593 0 1.079-.175 1.459-.525.379-.35.568-.806.568-1.368 0-.701-.189-1.247-.568-1.638-.371-.39-.862-.586-1.472-.586-.585 0-1.059.187-1.422.562-.354.374-.531.867-.531 1.478 0 .627.177 1.133.531 1.515.355.375.833.562 1.435.562zm57.334 5.56v-1.552c-1.793-.122-2.779-1.043-2.96-2.761h1.036c.074.57.242 1.018.505 1.344.264.326.736.521 1.419.586V91.11c-.872-.162-1.525-.42-1.961-.77-.428-.358-.642-.883-.642-1.576 0-.635.243-1.172.728-1.612.485-.448 1.11-.697 1.875-.746v-1.1h.728v1.112c.748.066 1.34.302 1.776.71.444.407.707.965.789 1.673h-.962c-.091-.472-.267-.83-.53-1.075-.255-.253-.613-.411-1.073-.477v3.055c.953.171 1.648.436 2.084.794.444.359.666.917.666 1.674 0 .7-.259 1.291-.777 1.772-.518.48-1.176.745-1.973.794v1.552h-.728zm2.454-4.045c0-.464-.123-.814-.37-1.05-.246-.237-.699-.424-1.356-.562v3.274c.501-.049.912-.224 1.233-.525a1.5 1.5 0 0 0 .493-1.137zm-4.082-4.178c0 .415.107.741.32.977.222.228.658.407 1.308.538v-2.945c-.51.04-.909.192-1.197.452-.287.26-.431.587-.431.978zm9.595 6.684c-.502 0-.979-.09-1.431-.27a2.765 2.765 0 0 1-1.147-.891 2.285 2.285 0 0 1-.469-1.43c0-.562.153-1.035.457-1.417a2.637 2.637 0 0 1 1.208-.843 2.193 2.193 0 0 1-.986-.721 1.847 1.847 0 0 1-.346-1.112c0-.676.272-1.222.814-1.638a3.031 3.031 0 0 1 1.9-.635c.715 0 1.344.212 1.887.635.543.416.814.953.814 1.613 0 .84-.452 1.454-1.357 1.845 1.127.408 1.69 1.157 1.69 2.248 0 .823-.304 1.467-.913 1.931-.6.456-1.307.684-2.121.684zm0-.868c.567 0 1.032-.155 1.394-.465.361-.317.542-.757.542-1.32 0-.553-.181-.98-.542-1.282-.362-.302-.819-.452-1.369-.452-.56 0-1.028.155-1.407.464-.378.31-.567.741-.567 1.295 0 .546.189.978.567 1.295.379.31.839.465 1.382.465zm.037-4.362c.477 0 .859-.13 1.147-.391.288-.26.432-.62.432-1.076 0-.415-.157-.757-.469-1.026-.304-.269-.687-.403-1.147-.403-.469 0-.859.134-1.172.403-.304.26-.456.611-.456 1.051 0 .44.16.79.481 1.05.32.261.715.392 1.184.392zm7.282 5.23c-.913 0-1.649-.253-2.208-.758-.551-.505-.843-1.149-.875-1.93h.986c.05.553.247.997.592 1.331.354.334.864.5 1.53.5.674 0 1.175-.146 1.504-.439.337-.301.506-.717.506-1.246 0-1.133-.621-1.699-1.862-1.699h-.666v-.891h.616c1.102 0 1.653-.497 1.653-1.491 0-.432-.14-.782-.419-1.051-.272-.277-.666-.415-1.184-.415-.543 0-.991.15-1.345.452-.345.301-.547.7-.604 1.197h-.937a2.462 2.462 0 0 1 .851-1.784c.534-.489 1.212-.733 2.035-.733.805 0 1.447.228 1.924.684.485.448.727.99.727 1.625 0 .888-.464 1.524-1.393 1.907.534.138.949.395 1.245.77.305.366.457.842.457 1.429 0 .782-.292 1.4-.876 1.857-.576.456-1.328.684-2.257.684zm4.736 1.392l-.666-.342 1.184-2.676.999.465-1.517 2.553zm2.605-1.502v-.245l3.503-3.653c.847-.888 1.27-1.731 1.27-2.53 0-.488-.14-.871-.419-1.148-.271-.277-.658-.416-1.159-.416-1.078 0-1.698.648-1.863 1.943h-.999c.066-.863.35-1.544.851-2.04.51-.505 1.18-.758 2.011-.758.814 0 1.459.224 1.936.672.485.44.728 1.035.728 1.784 0 .97-.592 2.028-1.776 3.177l-2.43 2.346h4.255v.867h-5.908zm10.172.097c-.806 0-1.451-.196-1.937-.587-.485-.399-.785-.953-.9-1.661h1.036c.107.456.3.802.58 1.038.288.229.703.343 1.246.343.715 0 1.266-.29 1.652-.868.395-.587.596-1.454.605-2.603a2.292 2.292 0 0 1-.925.856 2.969 2.969 0 0 1-1.357.305c-.855 0-1.554-.269-2.097-.806-.534-.538-.802-1.222-.802-2.053 0-.88.276-1.584.827-2.114.551-.537 1.291-.806 2.22-.806 1.036 0 1.821.338 2.356 1.014.542.668.814 1.633.814 2.896v.55c0 1.441-.288 2.553-.864 3.335-.575.774-1.393 1.161-2.454 1.161zm.16-4.008c.592 0 1.077-.175 1.456-.525.378-.35.567-.806.567-1.368 0-.701-.189-1.247-.567-1.638-.37-.39-.86-.586-1.468-.586-.584 0-1.057.187-1.418.562-.354.374-.531.867-.531 1.478 0 .627.177 1.133.531 1.515.353.375.83.562 1.43.562zm6.292 3.911v-7.686l-1.974 1.405v-.99l2.048-1.466h.999v8.736h-1.073zm59.543 1.649v-1.552c-1.813-.122-2.811-1.043-2.995-2.761h1.049c.075.57.245 1.018.511 1.344.267.326.745.521 1.435.586V91.11c-.881-.162-1.543-.42-1.984-.77-.432-.358-.649-.883-.649-1.576 0-.635.246-1.172.737-1.612.491-.448 1.123-.697 1.896-.746v-1.1h.737v1.112c.757.066 1.356.302 1.797.71.449.407.715.965.798 1.673h-.973c-.091-.472-.27-.83-.537-1.075-.257-.253-.619-.411-1.085-.477v3.055c.965.171 1.668.436 2.109.794.449.359.674.917.674 1.674 0 .7-.262 1.291-.787 1.772-.524.48-1.189.745-1.996.794v1.552h-.737zm2.484-4.045c0-.464-.125-.814-.375-1.05-.249-.237-.707-.424-1.372-.562v3.274c.507-.049.923-.224 1.248-.525.332-.31.499-.688.499-1.137zm-4.131-4.178c0 .415.108.741.325.977.224.228.665.407 1.322.538v-2.945c-.515.04-.919.192-1.21.452-.291.26-.437.587-.437.978zm9.421 6.684c-.923 0-1.634-.225-2.134-.673-.49-.448-.769-1.047-.836-1.796h1.036c.1.53.287.933.562 1.21.274.269.728.403 1.36.403.607 0 1.086-.187 1.435-.562.349-.375.524-.892.524-1.552 0-.619-.17-1.112-.512-1.478-.341-.375-.794-.562-1.36-.562-.898 0-1.601.28-2.109.843h-.399v-4.68h5.017v.916h-4.119v2.664c.441-.4 1.049-.599 1.822-.599.816 0 1.481.265 1.997.795.516.52.774 1.221.774 2.101 0 .896-.291 1.617-.874 2.163-.582.537-1.31.806-2.184.806zm7.652 0c-.591 0-1.098-.103-1.523-.306a2.386 2.386 0 0 1-.998-.868 3.98 3.98 0 0 1-.524-1.246 6.861 6.861 0 0 1-.162-1.552v-.207c0-1.532.316-2.709.948-3.532.641-.83 1.489-1.246 2.546-1.246.707 0 1.289.18 1.747.538.458.358.745.883.861 1.576h-1.036c-.099-.424-.278-.737-.536-.94-.258-.205-.628-.306-1.111-.306-.69 0-1.248.301-1.672.904-.424.603-.649 1.466-.674 2.59.216-.358.524-.643.923-.855.408-.22.866-.33 1.373-.33.874 0 1.577.273 2.109.819.541.545.811 1.226.811 2.04 0 .88-.278 1.588-.836 2.126-.557.53-1.306.794-2.246.794zm0-.832c.591 0 1.065-.187 1.423-.562.366-.374.549-.867.549-1.478 0-.627-.179-1.128-.537-1.503-.358-.383-.84-.574-1.448-.574-.599 0-1.089.179-1.472.537-.383.359-.574.823-.574 1.393 0 .693.187 1.23.561 1.613.383.383.882.574 1.498.574zm4.577 2.224l-.674-.342 1.198-2.676 1.011.465-1.535 2.553zm5.875-1.392c-.507 0-.99-.09-1.447-.27a2.786 2.786 0 0 1-1.161-.891 2.265 2.265 0 0 1-.474-1.43c0-.562.154-1.035.462-1.417a2.661 2.661 0 0 1 1.223-.843 2.222 2.222 0 0 1-.999-.721 1.83 1.83 0 0 1-.349-1.112c0-.676.274-1.222.823-1.638a3.092 3.092 0 0 1 1.922-.635 3.04 3.04 0 0 1 1.91.635c.549.416.823.953.823 1.613 0 .84-.457 1.454-1.372 1.845 1.139.408 1.709 1.157 1.709 2.248 0 .823-.308 1.467-.923 1.931-.608.456-1.323.684-2.147.684zm0-.868c.574 0 1.044-.155 1.41-.465.366-.317.55-.757.55-1.32 0-.553-.184-.98-.55-1.282-.366-.302-.827-.452-1.385-.452-.565 0-1.04.155-1.422.464-.383.31-.574.741-.574 1.295 0 .546.191.978.574 1.295.382.31.848.465 1.397.465zm.038-4.362c.482 0 .869-.13 1.16-.391.291-.26.437-.62.437-1.076 0-.415-.158-.757-.474-1.026-.308-.269-.695-.403-1.161-.403-.474 0-.869.134-1.185.403-.308.26-.462.611-.462 1.051 0 .44.162.79.487 1.05.324.261.724.392 1.198.392zm3.925 5.12v-.245l3.544-3.653c.857-.888 1.285-1.731 1.285-2.53 0-.488-.141-.871-.424-1.148-.275-.277-.666-.416-1.173-.416-1.09 0-1.718.648-1.884 1.943h-1.011c.066-.863.353-1.544.861-2.04.516-.505 1.194-.758 2.034-.758.824 0 1.477.224 1.959.672.491.44.736 1.035.736 1.784 0 .97-.599 2.028-1.797 3.177l-2.458 2.346h4.305v.867h-5.977zm6.91 0v-.245l3.544-3.653c.857-.888 1.285-1.731 1.285-2.53 0-.488-.141-.871-.424-1.148-.275-.277-.666-.416-1.173-.416-1.09 0-1.718.648-1.885 1.943h-1.01c.066-.863.353-1.544.861-2.04.516-.505 1.194-.758 2.034-.758.823 0 1.477.224 1.959.672.491.44.736 1.035.736 1.784 0 .97-.599 2.028-1.797 3.177l-2.458 2.346h4.305v.867h-5.977z" fill="#45567C"/><path d="M546.584 105.424c0-.674.463-1.219 1.034-1.219h21.708c.571 0 1.034.545 1.034 1.219 0 .673-.463 1.219-1.034 1.219h-21.708c-.571 0-1.034-.546-1.034-1.219z" fill="#EBEBEB"/><path d="M531.951 105.424c0-.674.464-1.219 1.037-1.219h8.291c.572 0 1.036.545 1.036 1.219 0 .673-.464 1.219-1.036 1.219h-8.291c-.573 0-1.037-.546-1.037-1.219z" fill="#41BB50" fill-opacity=".7"/><path d="M525.923 106.47l1.502-2.576c.233-.399.896-.399 1.128 0l1.503 2.576c.209.36-.096.783-.565.783h-3.004c-.469 0-.774-.423-.564-.783z" fill="#7ACF85"/><path d="M642.299 105.424c0-.674.463-1.219 1.034-1.219h21.708c.571 0 1.034.545 1.034 1.219 0 .673-.463 1.219-1.034 1.219h-21.708c-.571 0-1.034-.546-1.034-1.219z" fill="#EBEBEB"/><path opacity=".7" d="M628.277 105.424c0-.674.464-1.219 1.037-1.219h8.291c.572 0 1.036.545 1.036 1.219 0 .673-.464 1.219-1.036 1.219h-8.291c-.573 0-1.037-.546-1.037-1.219zm-2.507-1.047l-1.502 2.577c-.232.398-.896.398-1.128 0l-1.502-2.577c-.21-.359.095-.782.564-.782h3.004c.469 0 .774.423.564.782z" fill="#E73F49"/><path d="M738.617 105.424c0-.674.463-1.219 1.034-1.219h21.708c.571 0 1.034.545 1.034 1.219 0 .673-.463 1.219-1.034 1.219h-21.708c-.571 0-1.034-.546-1.034-1.219z" fill="#EBEBEB"/><path d="M723.986 105.424c0-.674.464-1.219 1.037-1.219h8.291c.572 0 1.036.545 1.036 1.219 0 .673-.464 1.219-1.036 1.219h-8.291c-.573 0-1.037-.546-1.037-1.219z" fill="#41BB50" fill-opacity=".7"/><path d="M717.958 106.47l1.502-2.576c.233-.399.896-.399 1.128 0l1.503 2.576c.209.36-.096.783-.564.783h-3.005c-.469 0-.774-.423-.564-.783z" fill="#7ACF85"/><path d="M449.65 105.424c0-.674.463-1.219 1.034-1.219h21.708c.571 0 1.034.545 1.034 1.219 0 .673-.463 1.219-1.034 1.219h-21.708c-.571 0-1.034-.546-1.034-1.219z" fill="#EBEBEB"/><path d="M435.02 105.424c0-.674.464-1.219 1.036-1.219h8.291c.572 0 1.036.545 1.036 1.219 0 .673-.464 1.219-1.036 1.219h-8.291c-.572 0-1.036-.546-1.036-1.219z" fill="#41BB50" fill-opacity=".7"/><path d="M428.993 106.47l1.502-2.576c.233-.399.896-.399 1.129 0l1.502 2.576c.21.36-.095.783-.564.783h-3.005c-.469 0-.773-.423-.564-.783z" fill="#7ACF85"/><path d="M353.328 105.424c0-.674.463-1.219 1.034-1.219h21.708c.571 0 1.034.545 1.034 1.219 0 .673-.463 1.219-1.034 1.219h-21.708c-.571 0-1.034-.546-1.034-1.219z" fill="#EBEBEB"/><path d="M339.916 105.424c0-.674.464-1.219 1.036-1.219h8.291c.573 0 1.037.545 1.037 1.219 0 .673-.464 1.219-1.037 1.219h-8.291c-.572 0-1.036-.546-1.036-1.219z" fill="#41BB50" fill-opacity=".7"/><path d="M333.888 106.47l1.502-2.576c.232-.399.896-.399 1.128 0l1.502 2.576c.21.36-.095.783-.564.783h-3.004c-.469 0-.774-.423-.564-.783z" fill="#7ACF85"/><path d="M338.088 280.023c0-1.144.924-2.072 2.064-2.072h100.119c1.14 0 2.065.928 2.065 2.072v6.219a2.069 2.069 0 0 1-2.065 2.072H340.152a2.068 2.068 0 0 1-2.064-2.072v-6.219zm0 15.241a2.07 2.07 0 0 1 2.067-2.072h80.606a2.07 2.07 0 0 1 2.066 2.072v6.219a2.07 2.07 0 0 1-2.066 2.072h-80.606a2.07 2.07 0 0 1-2.067-2.072v-6.219zm0 31.092c0-1.145.929-2.073 2.076-2.073h34.255c1.146 0 2.076.928 2.076 2.073v6.218c0 1.145-.93 2.073-2.076 2.073h-34.255a2.074 2.074 0 0 1-2.076-2.073v-6.218zm0-15.851c0-1.144.92-2.072 2.055-2.072h67.827c1.135 0 2.055.928 2.055 2.072v6.219c0 1.144-.92 2.072-2.055 2.072h-67.827a2.064 2.064 0 0 1-2.055-2.072v-6.219zm0 53.648a2.07 2.07 0 0 1 2.066-2.072h94.019a2.07 2.07 0 0 1 2.066 2.072v6.219a2.07 2.07 0 0 1-2.066 2.072h-94.019a2.07 2.07 0 0 1-2.066-2.072v-6.219zm0 15.851c0-1.145.922-2.073 2.059-2.073h72.086c1.137 0 2.059.928 2.059 2.073v6.218a2.066 2.066 0 0 1-2.059 2.073h-72.086a2.066 2.066 0 0 1-2.059-2.073v-6.218zm0 15.241c0-1.145.928-2.073 2.073-2.073h26.946c1.144 0 2.072.928 2.072 2.073v6.218a2.073 2.073 0 0 1-2.072 2.073h-26.946a2.073 2.073 0 0 1-2.073-2.073v-6.218zM571.58 283.072c0-1.145.924-2.073 2.063-2.073h129.994c1.139 0 2.063.928 2.063 2.073v6.218a2.068 2.068 0 0 1-2.063 2.073H573.643a2.068 2.068 0 0 1-2.063-2.073v-6.218zm0 15.241c0-1.145.92-2.073 2.055-2.073H677.43c1.135 0 2.056.928 2.056 2.073v6.218a2.065 2.065 0 0 1-2.056 2.073H573.635a2.064 2.064 0 0 1-2.055-2.073v-6.218zm0 31.091c0-1.144.924-2.072 2.063-2.072h62.934c1.139 0 2.063.928 2.063 2.072v6.219a2.068 2.068 0 0 1-2.063 2.072h-62.934a2.068 2.068 0 0 1-2.063-2.072v-6.219zm0 15.241c0-1.145.917-2.073 2.048-2.073h47.113c1.131 0 2.049.928 2.049 2.073v6.218c0 1.145-.918 2.073-2.049 2.073h-47.113c-1.131 0-2.048-.928-2.048-2.073v-6.218zm0 15.851c0-1.145.915-2.073 2.044-2.073h30.661c1.129 0 2.044.928 2.044 2.073v6.218c0 1.145-.915 2.073-2.044 2.073h-30.661c-1.129 0-2.044-.928-2.044-2.073v-6.218zm0 15.241c0-1.145.924-2.073 2.063-2.073h22.698c1.139 0 2.063.928 2.063 2.073v6.218a2.068 2.068 0 0 1-2.063 2.073h-22.698a2.068 2.068 0 0 1-2.063-2.073v-6.218zm0 15.241c0-1.145.924-2.073 2.063-2.073h9.286c1.139 0 2.063.928 2.063 2.073v6.218a2.068 2.068 0 0 1-2.063 2.073h-9.286a2.068 2.068 0 0 1-2.063-2.073v-6.218zm0-76.937c0-1.077.922-1.95 2.059-1.95h88.547c1.137 0 2.059.873 2.059 1.95v5.853c0 1.077-.922 1.951-2.059 1.951h-88.547c-1.137 0-2.059-.874-2.059-1.951v-5.853z" fill="#C0E6FF"/><path d="M338.088 270.94c0-.841.697-1.524 1.556-1.524h45.658c.86 0 1.557.683 1.557 1.524 0 .842-.697 1.524-1.557 1.524h-45.658c-.859 0-1.556-.682-1.556-1.524zm0 82.91c0-.841.697-1.524 1.556-1.524h45.658c.86 0 1.557.683 1.557 1.524 0 .842-.697 1.524-1.557 1.524h-45.658c-.859 0-1.556-.682-1.556-1.524zm135.34-82.91a1.53 1.53 0 0 1 1.536-1.524h22.532a1.53 1.53 0 0 1 1.536 1.524 1.53 1.53 0 0 1-1.536 1.524h-22.532a1.53 1.53 0 0 1-1.536-1.524zm42.064 0a1.53 1.53 0 0 1 1.536-1.524h22.533a1.53 1.53 0 0 1 1.536 1.524 1.53 1.53 0 0 1-1.536 1.524h-22.533a1.53 1.53 0 0 1-1.536-1.524zm-42.064 82.91a1.53 1.53 0 0 1 1.536-1.524h22.532a1.53 1.53 0 0 1 1.536 1.524 1.53 1.53 0 0 1-1.536 1.524h-22.532a1.53 1.53 0 0 1-1.536-1.524zm42.064 0a1.53 1.53 0 0 1 1.536-1.524h22.533a1.53 1.53 0 0 1 1.536 1.524 1.53 1.53 0 0 1-1.536 1.524h-22.533a1.53 1.53 0 0 1-1.536-1.524z" fill="#DDDEE6"/><path d="M473.428 282.523c0-.842.694-1.524 1.55-1.524h20.675c.856 0 1.551.682 1.551 1.524s-.695 1.524-1.551 1.524h-20.675c-.856 0-1.55-.682-1.55-1.524z" fill="#73809C"/><path d="M341.137 283.133c0-1.179.925-2.134 2.067-2.134h43.417c1.142 0 2.067.955 2.067 2.134 0 1.178-.925 2.133-2.067 2.133h-43.417c-1.142 0-2.067-.955-2.067-2.133zm0 15.241c0-1.179.93-2.134 2.077-2.134h23.889c1.147 0 2.077.955 2.077 2.134 0 1.178-.93 2.133-2.077 2.133h-23.889c-1.147 0-2.077-.955-2.077-2.133zm0 15.545c0-1.01.919-1.828 2.053-1.828h34.91c1.134 0 2.053.818 2.053 1.828 0 1.011-.919 1.829-2.053 1.829h-34.91c-1.134 0-2.053-.818-2.053-1.829zm0 15.546c0-1.178.91-2.133 2.032-2.133h14.225c1.122 0 2.032.955 2.032 2.133 0 1.179-.91 2.134-2.032 2.134h-14.225c-1.122 0-2.032-.955-2.032-2.134zm0 38.102c0-1.01.93-1.828 2.077-1.828h23.889c1.147 0 2.077.818 2.077 1.828 0 1.011-.93 1.829-2.077 1.829h-23.889c-1.147 0-2.077-.818-2.077-1.829zm0 15.546c0-1.178.919-2.134 2.053-2.134h34.91c1.134 0 2.053.956 2.053 2.134 0 1.179-.919 2.134-2.053 2.134h-34.91c-1.134 0-2.053-.955-2.053-2.134zm0 15.241c0-1.178.91-2.134 2.032-2.134h14.225c1.122 0 2.032.956 2.032 2.134s-.91 2.134-2.032 2.134h-14.225c-1.122 0-2.032-.956-2.032-2.134z" fill="#C0E6FF" style="mix-blend-mode:multiply"/><path d="M515.492 282.523c0-.842.683-1.524 1.524-1.524h12.193a1.524 1.524 0 1 1 0 3.048h-12.193a1.524 1.524 0 0 1-1.524-1.524zm-42.064 15.241c0-.842.686-1.524 1.533-1.524h31.683c.847 0 1.533.682 1.533 1.524s-.686 1.524-1.533 1.524h-31.683a1.528 1.528 0 0 1-1.533-1.524zm42.064 0c0-.842.696-1.524 1.555-1.524h7.254c.859 0 1.555.682 1.555 1.524s-.696 1.524-1.555 1.524h-7.254c-.859 0-1.555-.682-1.555-1.524zm-42.064 15.851c0-.842.682-1.524 1.524-1.524h24.385a1.524 1.524 0 1 1 0 3.048h-24.385a1.524 1.524 0 0 1-1.524-1.524zm42.064 0c0-.842.702-1.524 1.568-1.524h18.811c.866 0 1.568.682 1.568 1.524 0 .841-.702 1.524-1.568 1.524H517.06c-.866 0-1.568-.683-1.568-1.524zm-42.064 15.241c0-.842.696-1.524 1.554-1.524h17.619c.858 0 1.554.682 1.554 1.524 0 .841-.696 1.524-1.554 1.524h-17.619c-.858 0-1.554-.683-1.554-1.524zm42.064 0c0-.842.699-1.524 1.56-1.524h14.56c.861 0 1.56.682 1.56 1.524 0 .841-.699 1.524-1.56 1.524h-14.56c-.861 0-1.56-.683-1.56-1.524z" fill="#73809C"/><path d="M730.084 270.94c0-.841.704-1.524 1.573-1.524h23.068c.869 0 1.573.683 1.573 1.524 0 .842-.704 1.524-1.573 1.524h-23.068c-.869 0-1.573-.682-1.573-1.524z" fill="#DDDEE6"/><path d="M730.084 282.523c0-.842.702-1.524 1.568-1.524h18.811c.866 0 1.568.682 1.568 1.524s-.702 1.524-1.568 1.524h-18.811c-.866 0-1.568-.682-1.568-1.524zm0 15.241c0-.842.705-1.524 1.575-1.524h15.749c.87 0 1.575.682 1.575 1.524s-.705 1.524-1.575 1.524h-15.749c-.87 0-1.575-.682-1.575-1.524zm0 15.851c0-.842.702-1.524 1.568-1.524h18.811c.866 0 1.568.682 1.568 1.524 0 .841-.702 1.524-1.568 1.524h-18.811c-.866 0-1.568-.683-1.568-1.524zm0 33.529c0-.842.702-1.524 1.568-1.524h18.811c.866 0 1.568.682 1.568 1.524s-.702 1.524-1.568 1.524h-18.811c-.866 0-1.568-.682-1.568-1.524zm0 15.851c0-.842.705-1.524 1.575-1.524h15.749c.87 0 1.575.682 1.575 1.524s-.705 1.524-1.575 1.524h-15.749c-.87 0-1.575-.682-1.575-1.524zm0 15.241c0-.842.702-1.524 1.568-1.524h18.811c.866 0 1.568.682 1.568 1.524s-.702 1.524-1.568 1.524h-18.811c-.866 0-1.568-.682-1.568-1.524zm0 14.631c0-.842.702-1.524 1.568-1.524h18.811c.866 0 1.568.682 1.568 1.524s-.702 1.524-1.568 1.524h-18.811c-.866 0-1.568-.682-1.568-1.524zm0-64.011c0-.842.698-1.524 1.56-1.524h14.559c.862 0 1.56.682 1.56 1.524 0 .841-.698 1.524-1.56 1.524h-14.559c-.862 0-1.56-.683-1.56-1.524zm-256.656 39.016c0-.841.691-1.524 1.543-1.524h29.834c.852 0 1.543.683 1.543 1.524 0 .842-.691 1.524-1.543 1.524h-29.834a1.533 1.533 0 0 1-1.543-1.524zm42.064 0c0-.841.702-1.524 1.568-1.524h18.811c.866 0 1.568.683 1.568 1.524 0 .842-.702 1.524-1.568 1.524H517.06c-.866 0-1.568-.682-1.568-1.524zm-42.064 14.632c0-.842.691-1.525 1.543-1.525h29.834c.852 0 1.543.683 1.543 1.525 0 .841-.691 1.524-1.543 1.524h-29.834a1.534 1.534 0 0 1-1.543-1.524zm42.064 0c0-.842.702-1.525 1.568-1.525h18.811c.866 0 1.568.683 1.568 1.525 0 .841-.702 1.524-1.568 1.524H517.06c-.866 0-1.568-.683-1.568-1.524zm-42.064 16.46c0-.842.691-1.524 1.543-1.524h29.834c.852 0 1.543.682 1.543 1.524s-.691 1.524-1.543 1.524h-29.834a1.533 1.533 0 0 1-1.543-1.524zm42.064 0c0-.842.702-1.524 1.568-1.524h18.811c.866 0 1.568.682 1.568 1.524s-.702 1.524-1.568 1.524H517.06c-.866 0-1.568-.682-1.568-1.524z" fill="#73809C"/><path d="M571.58 273.988a1.53 1.53 0 0 1 1.537-1.524h45.087a1.53 1.53 0 0 1 1.537 1.524 1.53 1.53 0 0 1-1.537 1.524h-45.087a1.53 1.53 0 0 1-1.537-1.524z" fill="#DDDEE6"/><path fill-rule="evenodd" clip-rule="evenodd" d="M558.168 399.268V272.464h1.219v126.804h-1.219z" fill="#D2D4DE"/><path fill="#2B3750" d="M296.023 28h10.973v10.973h-10.973zm0 22.557h10.973V61.53h-10.973zm-128.023 0h10.973V61.53H168zm0 323.716h10.973v10.973H168zm128.023 0h10.973v10.973h-10.973zm0 35.969h10.973v10.973h-10.973z"/></g><path fill="#fff" d="M10 137.964h175.249v211.989H10z"/><g filter="url(#f)"><path d="M10 141.091a3.128 3.128 0 0 1 3.13-3.127h168.989c1.729 0 3.13 1.4 3.13 3.127v205.736a3.128 3.128 0 0 1-3.13 3.127H13.129A3.128 3.128 0 0 1 10 346.827V141.091z" fill="#fff"/><path d="M10.5 141.091a2.628 2.628 0 0 1 2.63-2.627h168.989a2.629 2.629 0 0 1 2.63 2.627v205.736a2.629 2.629 0 0 1-2.63 2.627H13.129a2.628 2.628 0 0 1-2.629-2.627V141.091z" stroke="#EBECF0"/></g><g filter="url(#g)"><mask id="h" fill="#fff"><path fill-rule="evenodd" clip-rule="evenodd" d="M182.119 138.59H13.129a2.502 2.502 0 0 0-2.503 2.501v205.736a2.502 2.502 0 0 0 2.503 2.501h168.99a2.502 2.502 0 0 0 2.504-2.501V141.091a2.503 2.503 0 0 0-2.504-2.501zm-168.99-.626A3.128 3.128 0 0 0 10 141.091v205.736a3.128 3.128 0 0 0 3.13 3.127h168.989c1.729 0 3.13-1.4 3.13-3.127V141.091a3.128 3.128 0 0 0-3.13-3.127H13.129z"/></mask><path fill-rule="evenodd" clip-rule="evenodd" d="M182.119 138.59H13.129a2.502 2.502 0 0 0-2.503 2.501v205.736a2.502 2.502 0 0 0 2.503 2.501h168.99a2.502 2.502 0 0 0 2.504-2.501V141.091a2.503 2.503 0 0 0-2.504-2.501zm-168.99-.626A3.128 3.128 0 0 0 10 141.091v205.736a3.128 3.128 0 0 0 3.13 3.127h168.989c1.729 0 3.13-1.4 3.13-3.127V141.091a3.128 3.128 0 0 0-3.13-3.127H13.129z" fill="#EBECF0"/><path d="M13.13 139.59h168.989v-2H13.129v2zm-1.504 1.501c0-.828.672-1.501 1.503-1.501v-2a3.502 3.502 0 0 0-3.503 3.501h2zm0 205.736V141.091h-2v205.736h2zm1.503 1.501a1.502 1.502 0 0 1-1.503-1.501h-2a3.502 3.502 0 0 0 3.503 3.501v-2zm168.99 0H13.129v2h168.99v-2zm1.504-1.501c0 .828-.672 1.501-1.504 1.501v2a3.502 3.502 0 0 0 3.504-3.501h-2zm0-205.736v205.736h2V141.091h-2zm-1.504-1.501c.832 0 1.504.673 1.504 1.501h2a3.502 3.502 0 0 0-3.504-3.501v2zM11 141.091c0-1.174.953-2.127 2.13-2.127v-2A4.128 4.128 0 0 0 9 141.091h2zm0 205.736V141.091H9v205.736h2zm2.13 2.127a2.128 2.128 0 0 1-2.13-2.127H9c0 2.28 1.85 4.127 4.13 4.127v-2zm168.989 0H13.129v2h168.99v-2zm2.13-2.127a2.129 2.129 0 0 1-2.13 2.127v2c2.28 0 4.13-1.847 4.13-4.127h-2zm0-205.736v205.736h2V141.091h-2zm-2.13-2.127c1.177 0 2.13.953 2.13 2.127h2c0-2.28-1.85-4.127-4.13-4.127v2zm-168.99 0h168.99v-2H13.129v2z" fill="#EBECF0" mask="url(#h)"/></g><rect x="28.777" y="222.385" width="10.014" height="10.005" rx="2" fill="#0096FF"/><path d="M36.892 225.074a.417.417 0 0 0-.59 0l-3.54 3.537-1.475-1.473a.417.417 0 0 0-.59 0l-.296.294a.417.417 0 0 0 0 .59l2.066 2.063a.417.417 0 0 0 .59 0l4.13-4.127a.416.416 0 0 0 0-.589l-.294-.295z" fill="#fff"/><rect x="28.777" y="244.897" width="10.014" height="10.005" rx="2" fill="#0096FF"/><path d="M36.892 247.586a.417.417 0 0 0-.59 0l-3.54 3.538-1.475-1.474a.417.417 0 0 0-.59 0l-.296.295a.416.416 0 0 0 0 .589l2.066 2.064a.419.419 0 0 0 .59 0l4.13-4.127a.417.417 0 0 0 0-.59l-.294-.295z" fill="#fff"/><rect x="28.777" y="267.41" width="10.014" height="10.005" rx="2" fill="#0096FF"/><path d="M36.892 270.098a.419.419 0 0 0-.59 0l-3.54 3.538-1.475-1.474a.417.417 0 0 0-.59 0l-.296.295a.416.416 0 0 0 0 .589l2.066 2.064a.417.417 0 0 0 .59 0l4.13-4.127a.417.417 0 0 0 0-.59l-.294-.295z" fill="#fff"/><path d="M50.684 227.7a2.19 2.19 0 0 1 2.19-2.188h38.18a2.19 2.19 0 1 1 0 4.377h-38.18a2.19 2.19 0 0 1-2.19-2.189zm30.041 45.025a2.19 2.19 0 0 1 2.19-2.189h38.179a2.19 2.19 0 0 1 0 4.377H82.915c-1.21 0-2.19-.979-2.19-2.188zm-30.041-22.512a2.19 2.19 0 0 1 2.19-2.189h11.892a2.19 2.19 0 0 1 0 4.377H52.874a2.19 2.19 0 0 1-2.19-2.188zm21.279 0a2.19 2.19 0 0 1 2.19-2.189h48.82a2.19 2.19 0 1 1 0 4.377h-48.82a2.19 2.19 0 0 1-2.19-2.188zM97.625 227.7a2.19 2.19 0 0 1 2.19-2.188h33.799a2.19 2.19 0 1 1 0 4.377H99.816a2.19 2.19 0 0 1-2.191-2.189zm-46.941 45.025a2.19 2.19 0 0 1 2.19-2.189h21.28a2.19 2.19 0 1 1 0 4.377h-21.28c-1.21 0-2.19-.979-2.19-2.188zm79.486-22.512a2.19 2.19 0 0 1 2.191-2.189h21.28a2.19 2.19 0 1 1 0 4.377h-21.28a2.19 2.19 0 0 1-2.191-2.188zm-3.129 22.512a2.19 2.19 0 0 1 2.191-2.189h10.64a2.19 2.19 0 1 1 0 4.377h-10.64a2.19 2.19 0 0 1-2.191-2.188z" fill="#EBECF0"/><path fill-rule="evenodd" clip-rule="evenodd" d="M165.22 303.679H30.028c-1.037 0-1.878.84-1.878 1.876v23.763c0 1.036.84 1.876 1.878 1.876H165.22c1.037 0 1.877-.84 1.877-1.876v-23.763c0-1.036-.84-1.876-1.877-1.876zm-135.192-1.251c-1.729 0-3.13 1.4-3.13 3.127v23.763a3.127 3.127 0 0 0 3.13 3.126H165.22a3.127 3.127 0 0 0 3.129-3.126v-23.763a3.128 3.128 0 0 0-3.129-3.127H30.028z" fill="#0096FF"/><path d="M70.545 197.372v-20.121h12.477v2.983h-8.731v5.994h6.872v2.899h-6.872v8.245h-3.746zm14.901 0v-14.718h3.408v2.758c.976-1.97 2.572-2.964 4.788-2.983v3.18c-1.596.019-2.798.338-3.605.957-.789.619-1.183 1.67-1.183 3.152v7.654h-3.408zm17.397.281c-2.197 0-3.99-.675-5.38-2.026-1.389-1.351-2.083-3.17-2.083-5.459v-.225c0-2.252.685-4.081 2.056-5.488 1.39-1.407 3.145-2.11 5.267-2.11 1.99 0 3.642.619 4.957 1.857 1.333 1.238 1.999 3.096 1.999 5.572v.985H98.872c.056 1.407.432 2.485 1.127 3.236.694.75 1.671 1.125 2.929 1.125 1.99 0 3.117-.75 3.38-2.251h3.295c-.244 1.539-.958 2.72-2.141 3.546-1.183.825-2.722 1.238-4.619 1.238zm-3.915-9.174h7.351c-.169-2.438-1.361-3.658-3.576-3.658-1.014 0-1.859.328-2.535.985-.658.638-1.07 1.529-1.24 2.673zm20.253 9.174c-2.197 0-3.99-.675-5.379-2.026-1.39-1.351-2.084-3.17-2.084-5.459v-.225c0-2.252.685-4.081 2.056-5.488 1.389-1.407 3.145-2.11 5.266-2.11 1.991 0 3.643.619 4.957 1.857 1.334 1.238 2 3.096 2 5.572v.985H115.21c.056 1.407.432 2.485 1.127 3.236.694.75 1.671 1.125 2.929 1.125 1.99 0 3.117-.75 3.38-2.251h3.295c-.244 1.539-.958 2.72-2.141 3.546-1.183.825-2.722 1.238-4.619 1.238zm-3.915-9.174h7.351c-.169-2.438-1.361-3.658-3.577-3.658-1.014 0-1.858.328-2.534.985-.658.638-1.071 1.529-1.24 2.673zm-39.291-23.541c-1.008 0-1.803-.312-2.385-.938-.576-.631-.863-1.45-.863-2.457v-.075c0-.988.3-1.804.9-2.448.608-.651 1.39-.976 2.348-.976.72 0 1.33.178 1.83.535.501.35.802.882.902 1.594h-.817c-.175-.988-.807-1.482-1.896-1.482-.758 0-1.352.254-1.784.76-.426.5-.638 1.17-.638 2.007v.076c0 .85.206 1.522.62 2.016.412.488 1.007.732 1.783.732.695 0 1.217-.197 1.568-.591.35-.394.532-.91.544-1.548h-1.962v-.675h2.76v.497c0 .951-.266 1.685-.798 2.204-.525.513-1.23.769-2.112.769zm6.23 0c-.701 0-1.274-.225-1.718-.675-.438-.456-.657-1.06-.657-1.81v-.075c0-.738.213-1.342.638-1.811.432-.469.986-.703 1.662-.703.626 0 1.148.203 1.568.61.425.4.638 1.009.638 1.829v.253h-3.699c.019.563.16.994.423 1.294.269.294.654.441 1.154.441.77 0 1.205-.284 1.305-.853h.78c-.082.481-.31.853-.686 1.116-.375.256-.845.384-1.408.384zm-1.54-3.011h2.873c-.069-.944-.538-1.416-1.408-1.416-.394 0-.72.128-.977.385-.256.25-.419.594-.488 1.031zm6.36 2.993c-.432 0-.76-.116-.986-.347-.225-.232-.338-.548-.338-.948v-3.02h-.704v-.657h.704v-1.116h.78v1.116h1.145v.657H86.48v2.945c0 .475.203.713.61.713.226 0 .426-.034.601-.103v.657a2.01 2.01 0 0 1-.666.103zm6.554.018c-.833 0-1.452-.193-1.86-.581-.4-.394-.634-.91-.703-1.548h.788c.032.219.075.41.132.572.062.163.156.316.281.46.126.144.3.253.526.328.232.075.51.113.836.113.438 0 .8-.116 1.089-.347.294-.238.441-.544.441-.919 0-.388-.113-.673-.338-.854-.225-.188-.654-.331-1.286-.431-.757-.113-1.32-.307-1.69-.582-.37-.281-.554-.704-.554-1.266 0-.519.204-.951.61-1.295.407-.35.924-.525 1.55-.525.675 0 1.214.159 1.614.478.4.319.632.776.695 1.37h-.732c-.082-.419-.248-.722-.498-.91-.25-.188-.61-.281-1.08-.281-.444 0-.788.1-1.032.3a.968.968 0 0 0-.367.788c0 .35.107.612.32.788.213.175.644.312 1.295.412.789.125 1.365.332 1.728.619.37.282.554.726.554 1.332 0 .563-.222 1.035-.667 1.417-.438.375-.989.562-1.652.562zm5.154-.018c-.432 0-.76-.116-.986-.347-.226-.232-.338-.548-.338-.948v-3.02h-.704v-.657h.704v-1.116h.779v1.116h1.145v.657h-1.145v2.945c0 .475.203.713.61.713.226 0 .426-.034.601-.103v.657a2.01 2.01 0 0 1-.666.103zm3.12.018c-.482 0-.876-.118-1.183-.356-.301-.244-.451-.607-.451-1.088 0-.525.232-.91.695-1.154.469-.244 1.058-.366 1.765-.366h.704v-.356c0-.394-.081-.675-.244-.844-.163-.175-.432-.263-.807-.263-.676 0-1.052.294-1.127.882h-.779c.05-.525.256-.91.619-1.154.363-.25.805-.375 1.324-.375 1.196 0 1.793.585 1.793 1.754v3.236h-.779v-.619c-.375.469-.886.703-1.53.703zm.075-.619c.425 0 .773-.103 1.042-.309.275-.213.413-.504.413-.872v-.61h-.676c-1.139 0-1.709.322-1.709.966 0 .55.31.825.93.825zm3.765.535v-4.906h.779v.882c.169-.306.376-.541.62-.703.25-.163.582-.251.995-.263v.732c-.538.025-.942.15-1.211.375-.269.225-.404.622-.404 1.191v2.692h-.779zm5.068.066c-.432 0-.76-.116-.985-.347-.226-.232-.338-.548-.338-.948v-3.02h-.705v-.657h.705v-1.116h.779v1.116h1.145v.657h-1.145v2.945c0 .475.203.713.61.713.225 0 .426-.034.601-.103v.657a2.01 2.01 0 0 1-.667.103zm3.854.018c-.701 0-1.274-.225-1.718-.675-.438-.456-.657-1.06-.657-1.81v-.075c0-.738.212-1.342.638-1.811.432-.469.986-.703 1.662-.703.626 0 1.148.203 1.568.61.425.4.638 1.009.638 1.829v.253h-3.699c.019.563.16.994.423 1.294.269.294.654.441 1.154.441.77 0 1.205-.284 1.305-.853h.78c-.082.481-.31.853-.686 1.116-.375.256-.845.384-1.408.384zm-1.54-3.011h2.873c-.069-.944-.538-1.416-1.408-1.416-.394 0-.72.128-.977.385-.256.25-.419.594-.488 1.031zm6.716 3.011c-.657 0-1.192-.218-1.605-.656-.407-.438-.61-1.032-.61-1.782v-.075c0-.751.212-1.364.638-1.839.426-.481.976-.722 1.652-.722.726 0 1.262.291 1.606.872v-3.133h.779v7.251h-.779v-.844c-.15.25-.382.469-.695.656a1.93 1.93 0 0 1-.986.272zm.085-.647c.482 0 .873-.156 1.173-.469.301-.319.451-.781.451-1.388v-.075c0-.613-.138-1.072-.413-1.379-.269-.313-.651-.469-1.146-.469-.488 0-.869.166-1.145.497-.275.325-.413.785-.413 1.379v.075c0 .594.138 1.048.413 1.36.282.313.642.469 1.08.469z" fill="#2B3242"/><path d="M75.382 321.083c-1.122 0-2-.333-2.634-1-.628-.674-.941-1.551-.941-2.632v-.08c0-1.067.333-1.941 1.001-2.621.668-.687 1.526-1.031 2.574-1.031.828 0 1.525.2 2.093.601.574.4.904 1.004.991 1.811h-1.332c-.153-.908-.73-1.361-1.732-1.361-.695 0-1.239.237-1.633.71-.387.474-.58 1.108-.58 1.901v.08c0 .794.187 1.424.56 1.891.374.461.925.691 1.653.691.634 0 1.108-.167 1.422-.501.32-.333.49-.767.51-1.3h-1.802v-1.001h3.114v.661c0 .987-.29 1.764-.87 2.331-.582.567-1.38.85-2.394.85zm6.753 0c-.78 0-1.419-.24-1.913-.72-.493-.48-.74-1.127-.74-1.941v-.08c0-.801.243-1.451.73-1.951.495-.501 1.119-.751 1.873-.751.708 0 1.295.22 1.763.661.474.44.71 1.1.71 1.981v.35h-3.835c.02.5.154.884.4 1.151.248.266.595.4 1.042.4.708 0 1.108-.267 1.202-.801h1.172c-.087.547-.34.968-.761 1.261-.421.294-.969.44-1.643.44zm-1.392-3.261h2.614c-.06-.868-.484-1.301-1.272-1.301-.36 0-.66.117-.901.35-.234.227-.38.544-.44.951zm6.681 3.251c-.515 0-.909-.133-1.182-.4-.267-.267-.4-.65-.4-1.151v-2.861h-.702v-.911h.701v-1.15h1.212v1.15h1.152v.911h-1.152v2.751c0 .447.2.671.6.671.234 0 .431-.034.592-.1v.96a2.35 2.35 0 0 1-.822.13zm6.092.01c-.674 0-1.201-.15-1.582-.45-.38-.3-.584-.727-.61-1.281h1.14c.034.281.131.491.291.631.16.14.41.21.751.21.628 0 .942-.224.942-.671a.496.496 0 0 0-.26-.46c-.168-.107-.455-.193-.862-.26-.7-.113-1.192-.283-1.472-.51-.28-.234-.42-.594-.42-1.081 0-.493.193-.877.58-1.15.387-.281.848-.421 1.382-.421 1.255 0 1.94.527 2.053 1.581h-1.121c-.054-.24-.154-.417-.3-.53-.141-.113-.351-.17-.632-.17-.26 0-.464.057-.61.17a.54.54 0 0 0-.221.45.46.46 0 0 0 .23.42c.154.094.438.177.852.251.68.106 1.178.27 1.492.49.313.22.47.59.47 1.11 0 .534-.183.948-.55 1.241-.361.287-.875.43-1.543.43zm4.939-.01c-.514 0-.908-.133-1.182-.4-.267-.267-.4-.65-.4-1.151v-2.861h-.702v-.911h.701v-1.15h1.212v1.15h1.152v.911h-1.152v2.751c0 .447.2.671.601.671.234 0 .43-.034.59-.1v.96a2.35 2.35 0 0 1-.82.13zm3.335.01c-.514 0-.935-.126-1.262-.38-.327-.26-.491-.65-.491-1.171 0-.573.244-.993.731-1.26.488-.267 1.139-.4 1.953-.4h.651v-.271c0-.36-.073-.623-.22-.79-.141-.173-.384-.26-.731-.26-.608 0-.942.273-1.002.82h-1.171c.046-.58.273-1.014.681-1.3.413-.287.934-.431 1.562-.431 1.395 0 2.093.637 2.093 1.911v3.432h-1.192v-.64c-.374.493-.908.74-1.602.74zm.29-.87c.381 0 .691-.094.931-.28a.95.95 0 0 0 .361-.781v-.52h-.621c-1.008 0-1.512.283-1.512.85 0 .487.28.731.841.731zm3.893.77v-5.233h1.211v.981c.347-.7.915-1.054 1.703-1.061v1.131c-.568.007-.995.12-1.282.34-.281.22-.421.594-.421 1.121v2.721h-1.211zm5.811.09c-.514 0-.908-.133-1.181-.4-.267-.267-.401-.65-.401-1.151v-2.861h-.701v-.911h.701v-1.15h1.212v1.15h1.151v.911h-1.151v2.751c0 .447.2.671.601.671.233 0 .43-.034.59-.1v.96c-.233.087-.507.13-.821.13zm4.218.01c-.781 0-1.419-.24-1.913-.72s-.741-1.127-.741-1.941v-.08c0-.801.244-1.451.731-1.951.494-.501 1.118-.751 1.873-.751.707 0 1.295.22 1.762.661.474.44.711 1.1.711 1.981v.35h-3.835c.02.5.153.884.4 1.151.247.266.594.4 1.042.4.707 0 1.108-.267 1.201-.801h1.172c-.087.547-.34.968-.761 1.261-.421.294-.968.44-1.642.44zm-1.392-3.261h2.613c-.06-.868-.484-1.301-1.271-1.301-.361 0-.661.117-.902.35-.233.227-.38.544-.44.951zm6.86 3.261c-.681 0-1.235-.23-1.662-.69-.427-.467-.641-1.114-.641-1.941v-.08c0-.827.22-1.488.661-1.981.44-.501 1.005-.751 1.692-.751.775 0 1.332.304 1.673.911v-3.222h1.211v7.654h-1.211v-.88c-.147.273-.381.507-.701.7-.314.187-.655.28-1.022.28zm.301-.96c.44 0 .794-.147 1.061-.44.267-.294.401-.724.401-1.291v-.08c0-.567-.124-.994-.371-1.281-.247-.293-.594-.44-1.041-.44-.448 0-.795.153-1.042.46-.247.3-.37.731-.37 1.291v.08c0 .553.123.977.37 1.271.254.286.584.43.992.43z" fill="#0096FF"/><g filter="url(#i)"><path d="M284.863 141.091a3.128 3.128 0 0 1 3.13-3.127h168.99c1.728 0 3.129 1.4 3.129 3.127v205.736a3.128 3.128 0 0 1-3.129 3.127h-168.99c-1.729 0-3.13-1.4-3.13-3.127V141.091z" fill="#fff"/><path d="M285.363 141.091a2.629 2.629 0 0 1 2.63-2.627h168.99a2.629 2.629 0 0 1 2.629 2.627v205.736a2.629 2.629 0 0 1-2.629 2.627h-168.99a2.629 2.629 0 0 1-2.63-2.627V141.091z" stroke="#EBECF0"/></g><g filter="url(#j)"><mask id="k" fill="#fff"><path fill-rule="evenodd" clip-rule="evenodd" d="M456.983 138.59h-168.99a2.503 2.503 0 0 0-2.504 2.501v205.736a2.502 2.502 0 0 0 2.504 2.501h168.99a2.502 2.502 0 0 0 2.503-2.501V141.091a2.502 2.502 0 0 0-2.503-2.501zm-168.99-.626c-1.729 0-3.13 1.4-3.13 3.127v205.736a3.128 3.128 0 0 0 3.13 3.127h168.99c1.728 0 3.129-1.4 3.129-3.127V141.091a3.128 3.128 0 0 0-3.129-3.127h-168.99z"/></mask><path fill-rule="evenodd" clip-rule="evenodd" d="M456.983 138.59h-168.99a2.503 2.503 0 0 0-2.504 2.501v205.736a2.502 2.502 0 0 0 2.504 2.501h168.99a2.502 2.502 0 0 0 2.503-2.501V141.091a2.502 2.502 0 0 0-2.503-2.501zm-168.99-.626c-1.729 0-3.13 1.4-3.13 3.127v205.736a3.128 3.128 0 0 0 3.13 3.127h168.99c1.728 0 3.129-1.4 3.129-3.127V141.091a3.128 3.128 0 0 0-3.129-3.127h-168.99z" fill="#EBECF0"/><path d="M287.993 139.59h168.99v-2h-168.99v2zm-1.504 1.501c0-.828.673-1.501 1.504-1.501v-2a3.502 3.502 0 0 0-3.504 3.501h2zm0 205.736V141.091h-2v205.736h2zm1.504 1.501a1.503 1.503 0 0 1-1.504-1.501h-2a3.502 3.502 0 0 0 3.504 3.501v-2zm168.99 0h-168.99v2h168.99v-2zm1.503-1.501c0 .828-.672 1.501-1.503 1.501v2a3.501 3.501 0 0 0 3.503-3.501h-2zm0-205.736v205.736h2V141.091h-2zm-1.503-1.501c.831 0 1.503.673 1.503 1.501h2a3.501 3.501 0 0 0-3.503-3.501v2zm-171.12 1.501c0-1.174.953-2.127 2.13-2.127v-2a4.129 4.129 0 0 0-4.13 4.127h2zm0 205.736V141.091h-2v205.736h2zm2.13 2.127a2.129 2.129 0 0 1-2.13-2.127h-2c0 2.28 1.85 4.127 4.13 4.127v-2zm168.99 0h-168.99v2h168.99v-2zm2.129-2.127a2.128 2.128 0 0 1-2.129 2.127v2a4.128 4.128 0 0 0 4.129-4.127h-2zm0-205.736v205.736h2V141.091h-2zm-2.129-2.127c1.177 0 2.129.953 2.129 2.127h2c0-2.28-1.85-4.127-4.129-4.127v2zm-168.99 0h168.99v-2h-168.99v2z" fill="#EBECF0" mask="url(#k)"/></g><rect x="303.641" y="222.385" width="10.014" height="10.005" rx="2" fill="#0096FF"/><path d="M311.756 225.074a.417.417 0 0 0-.59 0l-3.541 3.537-1.475-1.473a.417.417 0 0 0-.59 0l-.295.294a.417.417 0 0 0 0 .59l2.065 2.063a.417.417 0 0 0 .59 0l4.131-4.127a.416.416 0 0 0 0-.589l-.295-.295z" fill="#fff"/><rect x="303.641" y="244.897" width="10.014" height="10.005" rx="2" fill="#0096FF"/><path d="M311.756 247.586a.417.417 0 0 0-.59 0l-3.541 3.538-1.475-1.474a.417.417 0 0 0-.59 0l-.295.295a.416.416 0 0 0 0 .589l2.065 2.064a.419.419 0 0 0 .59 0l4.131-4.127a.417.417 0 0 0 0-.59l-.295-.295z" fill="#fff"/><rect x="303.641" y="267.41" width="10.014" height="10.005" rx="2" fill="#0096FF"/><path d="M311.756 270.098a.419.419 0 0 0-.59 0l-3.541 3.538-1.475-1.474a.417.417 0 0 0-.59 0l-.295.295a.416.416 0 0 0 0 .589l2.065 2.064a.417.417 0 0 0 .59 0l4.131-4.127a.417.417 0 0 0 0-.59l-.295-.295z" fill="#fff"/><path d="M325.547 227.7a2.19 2.19 0 0 1 2.19-2.188h38.18a2.189 2.189 0 1 1 0 4.377h-38.18a2.19 2.19 0 0 1-2.19-2.189zm30.041 45.025a2.19 2.19 0 0 1 2.191-2.189h38.179a2.19 2.19 0 1 1 0 4.377h-38.179a2.19 2.19 0 0 1-2.191-2.188zm-30.041-22.512a2.19 2.19 0 0 1 2.19-2.189h11.892c1.21 0 2.191.98 2.191 2.189a2.19 2.19 0 0 1-2.191 2.188h-11.892a2.19 2.19 0 0 1-2.19-2.188zm21.279 0a2.19 2.19 0 0 1 2.191-2.189h48.819c1.21 0 2.191.98 2.191 2.189a2.19 2.19 0 0 1-2.191 2.188h-48.819a2.19 2.19 0 0 1-2.191-2.188zm25.662-22.513a2.19 2.19 0 0 1 2.191-2.188h33.798a2.189 2.189 0 1 1 0 4.377h-33.798a2.19 2.19 0 0 1-2.191-2.189zm-46.941 45.025a2.19 2.19 0 0 1 2.19-2.189h21.281a2.19 2.19 0 1 1 0 4.377h-21.281a2.189 2.189 0 0 1-2.19-2.188zm79.486-22.512a2.19 2.19 0 0 1 2.191-2.189h21.28c1.21 0 2.191.98 2.191 2.189a2.19 2.19 0 0 1-2.191 2.188h-21.28a2.19 2.19 0 0 1-2.191-2.188zm-3.129 22.512a2.19 2.19 0 0 1 2.191-2.189h10.64a2.19 2.19 0 0 1 0 4.377h-10.64a2.19 2.19 0 0 1-2.191-2.188z" fill="#EBECF0"/><path fill-rule="evenodd" clip-rule="evenodd" d="M440.083 303.679H304.891c-1.037 0-1.878.84-1.878 1.876v23.763c0 1.036.841 1.876 1.878 1.876h135.192c1.037 0 1.878-.84 1.878-1.876v-23.763a1.877 1.877 0 0 0-1.878-1.876zm-135.192-1.251a3.128 3.128 0 0 0-3.129 3.127v23.763a3.127 3.127 0 0 0 3.129 3.126h135.192a3.128 3.128 0 0 0 3.13-3.126v-23.763a3.129 3.129 0 0 0-3.13-3.127H304.891z" fill="#0096FF"/><path d="M342.072 197.372v-17.166h-5.605v-2.955h14.984v2.955h-5.605v17.166h-3.774zm16.471.281c-2.197 0-3.99-.675-5.38-2.026-1.389-1.351-2.084-3.17-2.084-5.459v-.225c0-2.252.685-4.081 2.056-5.488 1.39-1.407 3.145-2.11 5.267-2.11 1.99 0 3.643.619 4.957 1.857 1.333 1.238 2 3.096 2 5.572v.985h-10.787c.056 1.407.431 2.485 1.126 3.236.695.75 1.671 1.125 2.929 1.125 1.991 0 3.117-.75 3.38-2.251h3.295c-.244 1.539-.957 2.72-2.14 3.546-1.183.825-2.723 1.238-4.619 1.238zm-3.915-9.174h7.351c-.169-2.438-1.361-3.658-3.577-3.658-1.014 0-1.859.328-2.535.985-.657.638-1.07 1.529-1.239 2.673zm17.771 9.174c-1.446 0-2.629-.356-3.549-1.069-.92-.732-1.38-1.829-1.38-3.293 0-1.613.685-2.795 2.056-3.545 1.371-.751 3.202-1.126 5.492-1.126h1.831v-.76c0-1.013-.207-1.754-.62-2.223-.394-.488-1.079-.731-2.056-.731-1.708 0-2.647.769-2.816 2.307h-3.295c.131-1.632.769-2.851 1.915-3.658 1.164-.807 2.628-1.21 4.393-1.21 3.925 0 5.887 1.791 5.887 5.375v9.652h-3.352v-1.801c-1.051 1.388-2.553 2.082-4.506 2.082zm.817-2.448c1.07 0 1.943-.263 2.619-.788.676-.544 1.014-1.276 1.014-2.195v-1.463h-1.746c-2.836 0-4.253.797-4.253 2.392 0 1.369.788 2.054 2.366 2.054zm10.947 2.167v-14.718h3.408v2.252c.376-.732.958-1.342 1.746-1.83.789-.487 1.7-.731 2.732-.731 2.066 0 3.455.882 4.169 2.645a5.344 5.344 0 0 1 2.168-1.97 6.234 6.234 0 0 1 2.817-.675c1.446 0 2.619.478 3.521 1.435.92.938 1.38 2.364 1.38 4.277v9.315h-3.408v-9.09c0-2.063-.873-3.095-2.62-3.095-.901 0-1.671.3-2.309.9-.62.582-.93 1.407-.93 2.477v8.808h-3.408v-9.09c0-2.063-.873-3.095-2.619-3.095-.901 0-1.671.3-2.31.9-.619.582-.929 1.407-.929 2.477v8.808h-3.408zm-29.883-32.434c-.97 0-1.737-.306-2.3-.919-.557-.613-.835-1.438-.835-2.476v-.075c0-.995.297-1.814.891-2.458.595-.644 1.349-.966 2.263-.966.732 0 1.352.191 1.859.572.507.382.795.923.864 1.623h-.808c-.169-1.032-.804-1.548-1.906-1.548-.694 0-1.255.253-1.68.76-.426.5-.639 1.169-.639 2.007v.075c0 .857.204 1.529.611 2.017.413.482.979.722 1.699.722.557 0 1.014-.137 1.371-.412.356-.282.576-.691.657-1.229h.76c-.112.756-.416 1.332-.91 1.726-.495.387-1.127.581-1.897.581zm6.041-.647c.489 0 .877-.169 1.164-.506.295-.338.442-.785.442-1.342v-.065c0-.57-.147-1.023-.442-1.361-.287-.337-.675-.506-1.164-.506-.494 0-.885.169-1.173.506-.288.338-.432.788-.432 1.351v.075c0 .563.144 1.013.432 1.351.288.331.679.497 1.173.497zm-.009.647c-.695 0-1.271-.234-1.728-.703-.45-.475-.675-1.073-.675-1.792v-.075c0-.731.225-1.332.675-1.801.457-.469 1.036-.703 1.737-.703.701 0 1.277.234 1.728.703.457.463.685 1.06.685 1.792v.075c0 .738-.228 1.341-.685 1.81-.457.463-1.036.694-1.737.694zm3.629-.084v-4.906h.779v.751c.119-.244.307-.444.563-.601.263-.156.564-.234.901-.234.72 0 1.199.306 1.437.919.156-.3.391-.528.704-.685.319-.156.645-.234.976-.234.482 0 .877.159 1.183.478.313.313.47.804.47 1.473v3.039h-.779v-3.096c0-.812-.348-1.219-1.043-1.219-.35 0-.654.116-.91.347-.257.231-.385.554-.385.966v3.002h-.779v-3.096c0-.812-.348-1.219-1.042-1.219-.351 0-.655.116-.911.347-.257.231-.385.554-.385.966v3.002h-.779zm8.545 1.707v-6.613h.779v.826c.15-.251.378-.463.685-.638.307-.182.632-.272.976-.272.658 0 1.193.225 1.606.675.419.444.629 1.041.629 1.792v.075c0 .756-.207 1.369-.62 1.838-.407.463-.945.694-1.615.694-.381 0-.716-.081-1.004-.244a1.752 1.752 0 0 1-.657-.647v2.514h-.779zm2.365-2.27c.489 0 .861-.159 1.118-.478.256-.319.385-.776.385-1.37v-.075c0-.594-.144-1.05-.432-1.369a1.363 1.363 0 0 0-1.08-.488c-.476 0-.864.159-1.164.478-.294.313-.441.773-.441 1.379v.075c0 .607.144 1.066.431 1.379.295.313.689.469 1.183.469zm4.75.647c-.481 0-.876-.119-1.182-.356-.301-.244-.451-.607-.451-1.088 0-.526.231-.91.695-1.154.469-.244 1.057-.366 1.765-.366h.704v-.356c0-.394-.082-.676-.244-.844-.163-.176-.432-.263-.808-.263-.676 0-1.051.294-1.126.882h-.78c.05-.526.257-.91.62-1.154.363-.25.804-.375 1.324-.375 1.195 0 1.793.584 1.793 1.754v3.236h-.779v-.619c-.376.469-.886.703-1.531.703zm.076-.619c.425 0 .773-.103 1.042-.309.275-.213.413-.504.413-.873v-.609h-.676c-1.139 0-1.709.322-1.709.966 0 .55.31.825.93.825zm3.765.535v-4.906h.779v.779c.119-.25.316-.457.591-.619.276-.163.604-.244.986-.244.538 0 .961.159 1.268.478.306.319.46.819.46 1.501v3.011h-.78v-3.067c0-.432-.094-.748-.281-.948-.188-.2-.479-.3-.873-.3-.382 0-.708.119-.977.356-.263.238-.394.566-.394.985v2.974h-.779zm5.914 1.707l.93-2.214-1.925-4.399h.836l1.502 3.518 1.361-3.518h.798l-2.713 6.613h-.789z" fill="#2B3242"/><path d="M343.423 320.038c-1.109 0-1.97-.327-2.584-.981-.608-.653-.911-1.537-.911-2.651v-.08c0-1.067.327-1.941.981-2.622.661-.687 1.492-1.03 2.494-1.03.854 0 1.559.213 2.113.64.56.427.881 1.047.961 1.861h-1.352c-.153-.96-.724-1.441-1.712-1.441-.635 0-1.142.234-1.522.701-.374.46-.561 1.087-.561 1.881v.08c0 .807.183 1.437.551 1.891.367.447.881.67 1.542.67.507 0 .921-.126 1.241-.38.328-.26.525-.637.591-1.131h1.302c-.1.841-.43 1.485-.991 1.932-.554.44-1.269.66-2.143.66zm6.531-.941c.447 0 .798-.153 1.052-.46.26-.313.39-.74.39-1.281v-.07c0-.54-.13-.963-.39-1.27-.254-.314-.605-.471-1.052-.471-.454 0-.811.154-1.071.461-.254.307-.381.73-.381 1.27v.08c0 .541.127.968.381 1.281.26.307.617.46 1.071.46zm1.923.2c-.508.494-1.152.741-1.933.741-.781 0-1.425-.247-1.933-.741-.5-.493-.751-1.133-.751-1.921v-.08c0-.8.254-1.45.761-1.951.508-.5 1.152-.75 1.933-.75.775 0 1.415.247 1.923.74.507.494.761 1.138.761 1.931v.08c0 .808-.254 1.458-.761 1.951zm1.856.641v-5.233h1.211v.83c.134-.273.348-.496.641-.67.294-.18.645-.27 1.052-.27.554 0 .991.17 1.312.51.32.334.48.847.48 1.541v3.292h-1.211v-3.182c0-.393-.084-.684-.251-.87-.167-.187-.43-.281-.791-.281-.36 0-.657.111-.891.331-.227.213-.341.52-.341.92v3.082h-1.211zm7.875.09c-.514 0-.908-.134-1.182-.4-.267-.267-.4-.651-.4-1.151v-2.862h-.701v-.91h.701v-1.151h1.211v1.151h1.152v.91h-1.152v2.752c0 .447.201.67.601.67.234 0 .431-.033.591-.1v.961a2.35 2.35 0 0 1-.821.13zm3.335.01c-.514 0-.935-.127-1.262-.38-.327-.26-.491-.651-.491-1.171 0-.574.244-.994.731-1.261.488-.266 1.139-.4 1.953-.4h.651v-.27c0-.36-.073-.624-.22-.79-.14-.174-.384-.261-.731-.261-.608 0-.942.274-1.002.821h-1.171c.046-.58.273-1.014.681-1.301.414-.287.934-.43 1.562-.43 1.395 0 2.093.637 2.093 1.911v3.432h-1.192v-.641c-.374.494-.908.741-1.602.741zm.29-.871c.381 0 .691-.093.932-.28a.949.949 0 0 0 .36-.78v-.52h-.621c-1.008 0-1.512.283-1.512.85 0 .487.28.73.841.73zm6.186.871c-.768 0-1.402-.237-1.903-.711-.494-.48-.741-1.127-.741-1.941v-.08c0-.813.254-1.467.761-1.961.508-.5 1.135-.75 1.883-.75.641 0 1.182.16 1.622.48.448.314.705.807.771 1.481h-1.171c-.094-.66-.494-.991-1.202-.991-.421 0-.764.154-1.032.461-.26.307-.39.727-.39 1.26v.08c0 .561.127.991.38 1.291.261.3.618.45 1.072.45.334 0 .618-.096.851-.29.241-.2.377-.477.411-.83h1.111c-.046.613-.287 1.11-.721 1.491-.434.373-1.001.56-1.702.56zm5.249-.01c-.514 0-.908-.134-1.181-.4-.267-.267-.401-.651-.401-1.151v-2.862h-.701v-.91h.701v-1.151h1.212v1.151h1.151v.91h-1.151v2.752c0 .447.2.67.601.67.233 0 .43-.033.59-.1v.961c-.233.087-.507.13-.821.13zm6.093.01c-.674 0-1.202-.15-1.582-.45-.381-.301-.584-.727-.611-1.281h1.142c.033.28.13.49.29.63.16.14.411.21.751.21.628 0 .941-.223.941-.67a.494.494 0 0 0-.26-.46c-.167-.107-.454-.194-.861-.26-.701-.114-1.192-.284-1.472-.511-.281-.233-.421-.593-.421-1.08 0-.494.194-.877.581-1.151.387-.28.848-.42 1.382-.42 1.255 0 1.939.527 2.053 1.581h-1.122c-.053-.24-.153-.417-.3-.53-.14-.114-.351-.171-.631-.171-.26 0-.464.057-.611.171a.54.54 0 0 0-.22.45.46.46 0 0 0 .23.42c.154.093.437.177.851.25.681.107 1.179.27 1.492.49.314.22.471.591.471 1.111 0 .534-.183.947-.551 1.241-.36.286-.874.43-1.542.43zm4.528 0c-.514 0-.935-.127-1.262-.38-.327-.26-.49-.651-.49-1.171 0-.574.243-.994.731-1.261.487-.266 1.138-.4 1.952-.4h.651v-.27c0-.36-.073-.624-.22-.79-.14-.174-.384-.261-.731-.261-.608 0-.941.274-1.002.821h-1.171c.047-.58.274-1.014.681-1.301.414-.287.934-.43 1.562-.43 1.395 0 2.093.637 2.093 1.911v3.432h-1.192v-.641c-.374.494-.908.741-1.602.741zm.29-.871c.381 0 .691-.093.932-.28a.949.949 0 0 0 .36-.78v-.52h-.621c-1.008 0-1.512.283-1.512.85 0 .487.281.73.841.73zm3.923.771v-7.654h1.212v7.654h-1.212zm4.992.1c-.781 0-1.419-.24-1.913-.721-.494-.48-.741-1.127-.741-1.941v-.08c0-.8.244-1.45.731-1.951.494-.5 1.118-.75 1.873-.75.707 0 1.295.22 1.762.66.474.441.711 1.101.711 1.981v.351h-3.835c.02.5.153.883.4 1.15.247.267.595.4 1.042.4.708 0 1.108-.266 1.202-.8h1.171c-.087.547-.34.967-.761 1.261-.42.293-.968.44-1.642.44zm-1.392-3.262h2.614c-.061-.867-.484-1.301-1.272-1.301-.361 0-.661.117-.902.351-.233.226-.38.543-.44.95zm6.739 3.262c-.674 0-1.202-.15-1.582-.45-.381-.301-.584-.727-.611-1.281h1.141c.034.28.131.49.291.63.16.14.41.21.751.21.628 0 .941-.223.941-.67a.494.494 0 0 0-.26-.46c-.167-.107-.454-.194-.861-.26-.701-.114-1.192-.284-1.472-.511-.281-.233-.421-.593-.421-1.08 0-.494.194-.877.581-1.151.387-.28.848-.42 1.382-.42 1.255 0 1.939.527 2.053 1.581h-1.122c-.053-.24-.153-.417-.3-.53-.14-.114-.351-.171-.631-.171-.261 0-.464.057-.611.171a.54.54 0 0 0-.22.45c0 .187.076.327.23.42.154.093.437.177.851.25.681.107 1.179.27 1.492.49.314.22.471.591.471 1.111 0 .534-.184.947-.551 1.241-.36.286-.874.43-1.542.43z" fill="#0096FF"/><path d="M147.379 123.127a3.128 3.128 0 0 1 3.129-3.127h168.99c1.729 0 3.13 1.4 3.13 3.127v240.755a3.127 3.127 0 0 1-3.13 3.126h-168.99a3.127 3.127 0 0 1-3.129-3.126V123.127z" fill="#2B3242" filter="url(#l)"/><path d="M164.277 316.356a3.128 3.128 0 0 1 3.13-3.126h135.192c1.728 0 3.129 1.4 3.129 3.126v23.763a3.128 3.128 0 0 1-3.129 3.127H167.407c-1.729 0-3.13-1.4-3.13-3.127v-23.763z" fill="#0096FF"/><path d="M219.125 141.262v-6.707h1.906c.695 0 1.258.162 1.69.488.438.318.657.809.657 1.472v.038c0 .675-.219 1.175-.657 1.501-.432.318-.995.478-1.69.478h-1.089v2.73h-.817zm.817-3.377h1.145c.476 0 .839-.113 1.089-.338.257-.231.385-.563.385-.994v-.038c0-.869-.491-1.304-1.474-1.304h-1.145v2.674zm6.491 2.814c.488 0 .876-.169 1.164-.507.294-.337.441-.785.441-1.341v-.066c0-.569-.147-1.022-.441-1.36-.288-.338-.676-.506-1.164-.506-.495 0-.886.168-1.174.506-.288.338-.431.788-.431 1.351v.075c0 .563.143 1.013.431 1.351.288.331.679.497 1.174.497zm-.009.647c-.695 0-1.271-.235-1.728-.704-.451-.475-.676-1.072-.676-1.791v-.075c0-.732.225-1.332.676-1.801.457-.469 1.036-.704 1.737-.704.701 0 1.277.235 1.727.704.457.463.686 1.06.686 1.791v.075c0 .738-.229 1.342-.686 1.811-.457.463-1.035.694-1.736.694zm3.628 1.623v-6.613h.78v.825c.15-.25.378-.463.685-.638.307-.181.632-.272.976-.272.657 0 1.193.225 1.606.676.419.444.629 1.041.629 1.791v.075c0 .757-.207 1.37-.62 1.839-.407.463-.945.694-1.615.694-.382 0-.716-.081-1.004-.244a1.767 1.767 0 0 1-.657-.647v2.514h-.78zm2.366-2.27c.488 0 .861-.16 1.117-.479.257-.319.385-.775.385-1.369v-.075c0-.594-.144-1.051-.432-1.37a1.362 1.362 0 0 0-1.079-.487c-.476 0-.864.159-1.164.478-.295.313-.442.772-.442 1.379v.075c0 .606.144 1.066.432 1.379.294.312.689.469 1.183.469zm5.182.647c-.519 0-.936-.153-1.249-.46-.306-.306-.46-.781-.46-1.425v-3.105h.78v3.067c0 .432.09.747.272.947.188.201.476.301.864.301.369 0 .685-.119.948-.357.269-.237.404-.566.404-.985v-2.973h.779v4.906h-.779v-.779c-.119.25-.317.456-.592.619-.269.163-.591.244-.967.244zm3.931-.084v-7.251h.789v7.251h-.789zm3.614.084c-.482 0-.877-.119-1.183-.356-.301-.244-.451-.607-.451-1.089 0-.525.232-.909.695-1.153.469-.244 1.058-.366 1.765-.366h.704v-.357c0-.394-.081-.675-.244-.844-.163-.175-.432-.262-.808-.262-.676 0-1.051.293-1.126.881h-.779c.05-.525.256-.91.619-1.153.363-.251.804-.376 1.324-.376 1.195 0 1.793.585 1.793 1.754v3.237h-.779v-.62c-.376.469-.886.704-1.53.704zm.075-.619c.425 0 .773-.103 1.042-.31.275-.212.413-.503.413-.872v-.61h-.676c-1.139 0-1.709.322-1.709.966 0 .551.31.826.93.826zm3.765.535v-4.906h.779v.881c.169-.306.376-.54.62-.703.25-.163.582-.25.995-.263v.732c-.538.025-.942.15-1.211.375-.269.225-.404.622-.404 1.191v2.693h-.779z" fill="#fff"/><rect x="164.277" y="218.803" width="10.014" height="10.005" rx="2" fill="#0096FF"/><path d="M172.393 221.492a.418.418 0 0 0-.591 0l-3.54 3.538-1.475-1.474a.417.417 0 0 0-.59 0l-.295.295a.416.416 0 0 0 0 .589l2.065 2.064a.419.419 0 0 0 .59 0l4.131-4.127a.417.417 0 0 0 0-.59l-.295-.295z" fill="#fff"/><rect x="164.277" y="241.316" width="10.014" height="10.005" rx="2" fill="#0096FF"/><path d="M172.393 244.004a.42.42 0 0 0-.591 0l-3.54 3.538-1.475-1.474a.417.417 0 0 0-.59 0l-.295.295a.416.416 0 0 0 0 .589l2.065 2.064a.417.417 0 0 0 .59 0l4.131-4.127a.417.417 0 0 0 0-.59l-.295-.295z" fill="#fff"/><rect x="164.277" y="263.828" width="10.014" height="10.005" rx="2" fill="#0096FF"/><path d="M172.393 266.517a.418.418 0 0 0-.591 0l-3.54 3.537-1.475-1.474a.417.417 0 0 0-.59 0l-.295.295a.417.417 0 0 0 0 .59l2.065 2.063a.417.417 0 0 0 .59 0l4.131-4.127a.417.417 0 0 0 0-.59l-.295-.294z" fill="#fff"/><path d="M186.184 224.119a2.19 2.19 0 0 1 2.19-2.189h38.179a2.19 2.19 0 1 1 0 4.378h-38.179a2.19 2.19 0 0 1-2.19-2.189zm30.043 45.024a2.19 2.19 0 0 1 2.19-2.189h38.179a2.19 2.19 0 1 1 0 4.378h-38.179a2.19 2.19 0 0 1-2.19-2.189zm-30.043-22.512a2.19 2.19 0 0 1 2.19-2.189h11.892a2.19 2.19 0 1 1 0 4.378h-11.892a2.19 2.19 0 0 1-2.19-2.189zm21.281 0a2.19 2.19 0 0 1 2.19-2.189h48.82a2.19 2.19 0 1 1 0 4.378h-48.82a2.19 2.19 0 0 1-2.19-2.189zm25.66-22.512a2.19 2.19 0 0 1 2.191-2.189h33.798a2.19 2.19 0 1 1 0 4.378h-33.798a2.19 2.19 0 0 1-2.191-2.189zm-46.941 45.024a2.19 2.19 0 0 1 2.19-2.189h21.28a2.19 2.19 0 1 1 0 4.378h-21.28a2.19 2.19 0 0 1-2.19-2.189zm79.488-22.512a2.19 2.19 0 0 1 2.19-2.189h21.281a2.19 2.19 0 1 1 0 4.378h-21.281a2.19 2.19 0 0 1-2.19-2.189zm-3.129 22.512a2.19 2.19 0 0 1 2.191-2.189h10.64a2.19 2.19 0 1 1 0 4.378h-10.64a2.19 2.19 0 0 1-2.191-2.189z" fill="#EBECF0" fill-opacity=".75"/><path d="M214.36 331.464c-.934 0-1.635-.206-2.103-.62-.46-.414-.717-.98-.771-1.701h1.282c.054.42.194.747.421.981.227.226.617.34 1.171.34.401 0 .725-.1.972-.3a.988.988 0 0 0 .38-.801c0-.333-.103-.577-.31-.73-.207-.154-.601-.277-1.182-.37-.888-.12-1.532-.334-1.933-.641-.393-.313-.59-.797-.59-1.45 0-.594.23-1.084.691-1.471.46-.387 1.061-.581 1.802-.581.775 0 1.385.177 1.833.531.447.347.704.86.771 1.541h-1.222c-.067-.374-.21-.644-.43-.811-.221-.173-.538-.26-.952-.26-.394 0-.697.087-.911.26a.817.817 0 0 0-.321.68c0 .307.097.537.291.691.2.153.597.273 1.192.36.887.12 1.535.337 1.942.65.408.307.611.804.611 1.491 0 .634-.244 1.161-.731 1.581-.487.42-1.121.63-1.903.63zm5.527 0c-.547 0-.985-.163-1.312-.49-.327-.327-.49-.824-.49-1.491v-3.351h1.211v3.211c0 .394.084.684.251.871.167.186.427.28.781.28.347 0 .637-.11.871-.33.234-.22.35-.527.35-.921v-3.111h1.212v5.232h-1.212v-.82c-.14.273-.353.497-.64.67-.281.167-.621.25-1.022.25zm7.235 0c-.401 0-.751-.086-1.051-.26a1.692 1.692 0 0 1-.661-.68v.84h-1.212v-7.654h1.212v3.262c.153-.267.383-.49.691-.67a1.957 1.957 0 0 1 1.021-.281c.674 0 1.228.241 1.662.721.441.473.661 1.12.661 1.941v.08c0 .827-.217 1.484-.651 1.971-.427.487-.984.73-1.672.73zm-.3-.96c.447 0 .787-.147 1.021-.44.24-.294.361-.721.361-1.281v-.08c0-.56-.131-.987-.391-1.281-.254-.3-.587-.45-1.001-.45-.434 0-.785.15-1.052.45-.26.294-.39.721-.39 1.281v.08c0 .567.126.997.38 1.291.26.286.618.43 1.072.43zm5.506.96c-.675 0-1.202-.15-1.583-.45-.38-.3-.584-.727-.611-1.281h1.142c.033.281.13.491.29.631.161.14.411.21.752.21.627 0 .941-.224.941-.67a.497.497 0 0 0-.26-.461c-.167-.106-.454-.193-.862-.26-.701-.113-1.191-.283-1.472-.51-.28-.234-.42-.594-.42-1.081 0-.493.193-.877.58-1.15.388-.28.848-.421 1.382-.421 1.256 0 1.94.527 2.053 1.581h-1.121c-.054-.24-.154-.417-.301-.53-.14-.113-.35-.17-.631-.17-.26 0-.464.057-.61.17a.54.54 0 0 0-.221.45c0 .187.077.327.231.42.153.094.437.177.851.251.681.106 1.178.27 1.492.49.314.22.471.59.471 1.11 0 .534-.184.948-.551 1.241-.361.287-.875.43-1.542.43zm5.449 0c-.768 0-1.402-.236-1.903-.71-.494-.48-.741-1.127-.741-1.941v-.08c0-.814.254-1.468.761-1.961.507-.5 1.135-.751 1.883-.751.641 0 1.181.161 1.622.481.447.313.704.807.771 1.481h-1.172c-.093-.661-.494-.991-1.201-.991-.421 0-.765.153-1.032.46-.26.307-.39.727-.39 1.261v.08c0 .56.127.99.38 1.291.261.3.618.45 1.072.45.334 0 .617-.097.851-.29.24-.2.377-.477.411-.831h1.111c-.047.614-.287 1.111-.721 1.491-.434.374-1.001.56-1.702.56zm3.467-.1v-5.232h1.211v.98c.347-.7.915-1.054 1.703-1.061v1.131c-.568.007-.995.12-1.282.34-.28.22-.421.594-.421 1.121v2.721h-1.211zm4.01 0v-5.232h1.212v5.232h-1.212zm1.101-6.293c-.14.133-.31.2-.51.2a.714.714 0 0 1-.511-.2.65.65 0 0 1-.21-.49c0-.2.07-.367.21-.501.14-.133.31-.2.511-.2.2 0 .37.067.51.2a.662.662 0 0 1 .211.501c0 .193-.07.357-.211.49zm4.512 6.393c-.401 0-.751-.086-1.052-.26a1.699 1.699 0 0 1-.661-.68v.84h-1.211v-7.654h1.211v3.262c.154-.267.384-.49.691-.67a1.963 1.963 0 0 1 1.022-.281c.674 0 1.228.241 1.662.721.441.473.661 1.12.661 1.941v.08c0 .827-.217 1.484-.651 1.971-.427.487-.985.73-1.672.73zm-.301-.96c.448 0 .788-.147 1.022-.44.24-.294.36-.721.36-1.281v-.08c0-.56-.13-.987-.39-1.281-.254-.3-.588-.45-1.002-.45-.434 0-.784.15-1.051.45-.261.294-.391.721-.391 1.281v.08c0 .567.127.997.381 1.291.26.286.617.43 1.071.43zm6.017.96c-.781 0-1.419-.24-1.913-.72s-.741-1.127-.741-1.941v-.08c0-.801.244-1.451.731-1.951.494-.5 1.118-.751 1.873-.751.708 0 1.295.221 1.762.661.474.44.711 1.1.711 1.981v.35h-3.835c.02.5.153.884.401 1.151.247.266.594.4 1.041.4.708 0 1.108-.267 1.202-.801h1.171c-.086.547-.34.968-.761 1.261-.42.294-.968.44-1.642.44zm-1.392-3.261h2.614c-.06-.868-.484-1.301-1.272-1.301-.361 0-.661.117-.901.35-.234.227-.381.544-.441.951zm-56.194-132.476v-4.886c-3.131-.232-5.472-1.137-7.024-2.714-1.552-1.602-2.432-3.67-2.639-6.203h4.812c.181 1.473.608 2.649 1.281 3.528.698.853 1.888 1.383 3.57 1.59v-8.724c-2.975-.517-5.174-1.383-6.597-2.598-1.423-1.215-2.135-3.011-2.135-5.389 0-2.172.802-3.981 2.406-5.429 1.604-1.447 3.713-2.261 6.326-2.442v-3.49h2.6v3.529c2.535.232 4.54 1.008 6.015 2.326 1.475 1.318 2.328 3.166 2.561 5.544h-4.579c-.44-2.378-1.772-3.748-3.997-4.11v7.949c3.079.491 5.355 1.344 6.83 2.559 1.5 1.215 2.251 3.063 2.251 5.544 0 2.327-.815 4.291-2.445 5.894-1.63 1.576-3.842 2.455-6.636 2.636v4.886h-2.6zm5.743-10.081c.776-.776 1.164-1.732 1.164-2.869 0-1.138-.31-2.004-.931-2.598-.595-.595-1.72-1.073-3.376-1.435v8.298c1.319-.181 2.367-.647 3.143-1.396zm-9.895-15.742c0 1.086.284 1.926.853 2.52.569.569 1.669 1.021 3.299 1.357v-7.638c-1.32.155-2.341.582-3.066 1.28-.724.672-1.086 1.499-1.086 2.481zm17.997 26.327l11.292-35.826h1.941l-11.293 35.826h-1.94zm15.331-5.739v-20.278h2.056v3.839c.492-1.189 1.32-2.172 2.484-2.947 1.19-.801 2.574-1.202 4.152-1.202 3.338 0 5.407 1.512 6.209 4.536a7.164 7.164 0 0 1 2.911-3.334 8.147 8.147 0 0 1 4.307-1.202c2.096 0 3.752.633 4.968 1.9 1.216 1.267 1.823 3.27 1.823 6.01v12.678h-2.056v-12.795c0-2.093-.427-3.618-1.281-4.575-.854-.956-2.121-1.434-3.803-1.434s-3.156.581-4.424 1.744c-1.242 1.138-1.863 2.702-1.863 4.692v12.368H241.6v-12.795c0-2.093-.427-3.618-1.281-4.575-.854-.956-2.121-1.434-3.803-1.434s-3.156.581-4.424 1.744c-1.242 1.138-1.863 2.702-1.863 4.692v12.368h-2.056zm43.203-1.434c2.225 0 4.049-.776 5.472-2.327 1.448-1.551 2.173-3.618 2.173-6.203v-.31c0-2.611-.725-4.692-2.173-6.243-1.449-1.551-3.273-2.326-5.472-2.326-2.225 0-4.062.788-5.511 2.365-1.448 1.551-2.173 3.619-2.173 6.204v.31c0 2.559.712 4.627 2.135 6.203 1.448 1.551 3.298 2.327 5.549 2.327zm6.946-1.125c-1.888 1.913-4.217 2.869-6.985 2.869-2.768 0-5.097-.969-6.985-2.907-1.863-1.939-2.794-4.395-2.794-7.367v-.31c0-2.999.944-5.467 2.833-7.406 1.888-1.939 4.217-2.908 6.985-2.908 2.794 0 5.122.956 6.985 2.869 1.863 1.913 2.794 4.382 2.794 7.406v.31c0 3.024-.944 5.506-2.833 7.444z" fill="#fff"/><defs><filter id="a" x="138" y="0" width="680" height="453.215" filterUnits="userSpaceOnUse" color-interpolation-filters="sRGB"><feFlood flood-opacity="0" result="BackgroundImageFix"/><feColorMatrix in="SourceAlpha" values="0 0 0 0 0 0 0 0 0 0 0 0 0 0 0 0 0 0 127 0"/><feOffset dy="2"/><feGaussianBlur stdDeviation="15"/><feColorMatrix values="0 0 0 0 0.823529 0 0 0 0 0.831373 0 0 0 0 0.870588 0 0 0 0.6 0"/><feBlend in2="BackgroundImageFix" result="effect1_dropShadow"/><feBlend in="SourceGraphic" in2="effect1_dropShadow" result="shape"/></filter><filter id="f" x="0" y="129.964" width="195.249" height="231.989" filterUnits="userSpaceOnUse" color-interpolation-filters="sRGB"><feFlood flood-opacity="0" result="BackgroundImageFix"/><feColorMatrix in="SourceAlpha" values="0 0 0 0 0 0 0 0 0 0 0 0 0 0 0 0 0 0 127 0"/><feOffset dy="2"/><feGaussianBlur stdDeviation="5"/><feColorMatrix values="0 0 0 0 0 0 0 0 0 0 0 0 0 0 0 0 0 0 0.15 0"/><feBlend in2="BackgroundImageFix" result="effect1_dropShadow"/><feBlend in="SourceGraphic" in2="effect1_dropShadow" result="shape"/></filter><filter id="g" x="5" y="136.964" width="185.249" height="221.989" filterUnits="userSpaceOnUse" color-interpolation-filters="sRGB"><feFlood flood-opacity="0" result="BackgroundImageFix"/><feColorMatrix in="SourceAlpha" values="0 0 0 0 0 0 0 0 0 0 0 0 0 0 0 0 0 0 127 0"/><feOffset dy="4"/><feGaussianBlur stdDeviation="2.5"/><feColorMatrix values="0 0 0 0 0.592 0 0 0 0 0.592 0 0 0 0 0.592 0 0 0 0.2 0"/><feBlend in2="BackgroundImageFix" result="effect1_dropShadow"/><feBlend in="SourceGraphic" in2="effect1_dropShadow" result="shape"/></filter><filter id="i" x="269.863" y="124.964" width="205.249" height="241.989" filterUnits="userSpaceOnUse" color-interpolation-filters="sRGB"><feFlood flood-opacity="0" result="BackgroundImageFix"/><feColorMatrix in="SourceAlpha" values="0 0 0 0 0 0 0 0 0 0 0 0 0 0 0 0 0 0 127 0"/><feOffset dy="2"/><feGaussianBlur stdDeviation="7.5"/><feColorMatrix values="0 0 0 0 0 0 0 0 0 0 0 0 0 0 0 0 0 0 0.15 0"/><feBlend in2="BackgroundImageFix" result="effect1_dropShadow"/><feBlend in="SourceGraphic" in2="effect1_dropShadow" result="shape"/></filter><filter id="j" x="279.863" y="136.964" width="185.249" height="221.989" filterUnits="userSpaceOnUse" color-interpolation-filters="sRGB"><feFlood flood-opacity="0" result="BackgroundImageFix"/><feColorMatrix in="SourceAlpha" values="0 0 0 0 0 0 0 0 0 0 0 0 0 0 0 0 0 0 127 0"/><feOffset dy="4"/><feGaussianBlur stdDeviation="2.5"/><feColorMatrix values="0 0 0 0 0.592 0 0 0 0 0.592 0 0 0 0 0.592 0 0 0 0.2 0"/><feBlend in2="BackgroundImageFix" result="effect1_dropShadow"/><feBlend in="SourceGraphic" in2="effect1_dropShadow" result="shape"/></filter><filter id="l" x="127.379" y="100" width="215.249" height="287.008" filterUnits="userSpaceOnUse" color-interpolation-filters="sRGB"><feFlood flood-opacity="0" result="BackgroundImageFix"/><feColorMatrix in="SourceAlpha" values="0 0 0 0 0 0 0 0 0 0 0 0 0 0 0 0 0 0 127 0"/><feOffset/><feGaussianBlur stdDeviation="10"/><feColorMatrix values="0 0 0 0 0 0 0 0 0 0 0 0 0 0 0 0 0 0 0.25 0"/><feBlend in2="BackgroundImageFix" result="effect1_dropShadow"/><feBlend in="SourceGraphic" in2="effect1_dropShadow" result="shape"/></filter></defs></svg>